<?xml version="1.0" standalone="no"?>
<!DOCTYPE svg PUBLIC "-//W3C//DTD SVG 1.1//EN" "http://www.w3.org/Graphics/SVG/1.1/DTD/svg11.dtd" >
<svg xmlns="http://www.w3.org/2000/svg">
<metadata>
Created by FontForge 20120731 at Tue Dec 13 13:54:12 2016
 By admin
</metadata>
<defs>
<font id="iconfont" horiz-adv-x="1024" >
  <font-face 
    font-family="iconfont"
    font-weight="500"
    font-stretch="normal"
    units-per-em="1024"
    panose-1="2 0 6 3 0 0 0 0 0 0"
    ascent="896"
    descent="-128"
    x-height="792"
    bbox="-0.222222 -212 2212 897.01"
    underline-thickness="0"
    underline-position="0"
    unicode-range="U+0078-E978"
  />
<missing-glyph 
 />
    <glyph glyph-name=".notdef" 
 />
    <glyph glyph-name=".notdef" 
 />
    <glyph glyph-name=".null" horiz-adv-x="0" 
 />
    <glyph glyph-name="nonmarkingreturn" horiz-adv-x="341" 
 />
    <glyph glyph-name="x" unicode="x" horiz-adv-x="1001" 
d="M281 543q-27 -1 -53 -1h-83q-18 0 -36.5 -6t-32.5 -18.5t-23 -32t-9 -45.5v-76h912v41q0 16 -0.5 30t-0.5 18q0 13 -5 29t-17 29.5t-31.5 22.5t-49.5 9h-133v-97h-438v97zM955 310v-52q0 -23 0.5 -52t0.5 -58t-10.5 -47.5t-26 -30t-33 -16t-31.5 -4.5q-14 -1 -29.5 -0.5
t-29.5 0.5h-32l-45 128h-439l-44 -128h-29h-34q-20 0 -45 1q-25 0 -41 9.5t-25.5 23t-13.5 29.5t-4 30v167h911zM163 247q-12 0 -21 -8.5t-9 -21.5t9 -21.5t21 -8.5q13 0 22 8.5t9 21.5t-9 21.5t-22 8.5zM316 123q-8 -26 -14 -48q-5 -19 -10.5 -37t-7.5 -25t-3 -15t1 -14.5
t9.5 -10.5t21.5 -4h37h67h81h80h64h36q23 0 34 12t2 38q-5 13 -9.5 30.5t-9.5 34.5q-5 19 -11 39h-368zM336 498v228q0 11 2.5 23t10 21.5t20.5 15.5t34 6h188q31 0 51.5 -14.5t20.5 -52.5v-227h-327z" />
    <glyph glyph-name="shezhi" unicode="&#xe600;" horiz-adv-x="1000" 
d="M553 606l10 -71l2 -15l15 -5q18 -6 33 -14l15 -7l12 10l53 41l1 -1q40 -38 55 -57q-5 -7 -16 -22q-17 -21 -25 -32l-8 -13l7 -13q9 -19 15 -38l4 -15l16 -2l67 -11v-79l-67 -11l-15 -2l-5 -14q-7 -21 -15 -35l-7 -14l9 -12q14 -22 41 -56q-12 -14 -28 -31
q-18 -19 -29 -27l-51 41l-13 11l-15 -8q-16 -9 -34 -15l-15 -5l-2 -16q0 -3 -1 -9q-4 -41 -8 -60h-76l-11 70l-2 15l-15 5q-18 6 -33 14l-14 8l-13 -10l-53 -41q-40 38 -56 58q6 7 17 22q16 21 24 32l9 12l-7 14q-10 19 -16 38l-4 15l-16 2l-67 11v79l68 10l15 3l5 15
q5 17 14 35l7 13l-8 12q-17 24 -42 56q12 14 28 31q18 18 29 27l52 -42l13 -10l14 8q17 9 34 14l15 5l2 16q0 4 1 10q4 41 9 60h76zM515 200q42 0 72 30t30 72.5t-30 72.5t-72 30t-72 -30t-30 -72.5t30 -72.5t72 -30zM561 631h-92q-12 0 -15 -12q-5 -22 -12 -80
q-19 -6 -38 -16l-57 46q-5 4 -11 4q-9 0 -39 -30.5t-41 -46.5q-3 -5 -3 -9q0 -6 4 -11q27 -34 44 -59q-10 -20 -16 -39l-77 -12q-5 -1 -8.5 -5.5t-3.5 -9.5v-95q0 -13 13 -16l75 -11q6 -21 17 -43q-7 -10 -22 -29.5t-21 -28.5q-3 -5 -3 -10q0 -6 2 -10q17 -23 69 -72
q5 -4 10 -4q6 0 11 4l58 45q17 -9 38 -15l11 -79q2 -13 15 -13h92q12 0 15 12q6 22 12 80q20 6 38 16l57 -46q6 -4 11 -4q9 0 39 30.5t41 45.5q4 5 4 10q0 6 -4 11q-30 37 -45 59q9 16 16 39l77 12q5 1 8.5 5.5t3.5 9.5v95q0 13 -12 15l-76 12q-6 21 -17 42q7 11 22 30.5
t21 28.5q4 5 4 10t-3 9q-15 22 -69 73q-4 4 -10 4t-10 -4l-59 -46q-17 9 -37 16l-12 79q-1 13 -15 13v0zM515 225q-32 0 -54.5 23t-22.5 54.5t22.5 54.5t54.5 23t54.5 -23t22.5 -54.5t-22.5 -54.5t-54.5 -23v0z" />
    <glyph glyph-name="sousuo" unicode="&#xe601;" horiz-adv-x="1000" 
d="M808 54l-73 75q48 76 48 167q0 130 -90.5 222t-218 92t-218 -92t-90.5 -222t90.5 -222t217.5 -92q67 0 128 28l22 -23v0l60 -60q25 -26 62 -26t62.5 26t25.5 63.5t-26 63.5zM262 296.5q0 89.5 62 153t150 63.5t150.5 -63.5t62.5 -153t-62.5 -153t-150.5 -63.5t-150 63.5
t-62 153z" />
    <glyph glyph-name="fanhui" unicode="&#xe602;" 
d="M625 692l-40 40l-365 -366l365 -366l40 40l-326 326z" />
    <glyph glyph-name="sousuo1" unicode="&#xe604;" 
d="M961 -104l-272 272q86 100 86 231q0 97 -47.5 178.5t-129.5 129.5t-178.5 48t-178.5 -48t-129.5 -129.5t-47.5 -178t47.5 -178.5t129.5 -129.5t178 -47.5q115 0 208 67l275 -274zM106 399.5q0 129.5 92 221.5t221.5 92t221.5 -92t92 -221.5t-92 -221.5t-221.5 -92
t-221.5 92t-92 221.5z" />
    <glyph glyph-name="QQ" unicode="&#xe605;" 
d="M274 332l-2 4l-1 4v3v3v4v4l1 4l1 5l2 5l2 5l2 5l4 6v4l1 3v5l2 6l2 6l1 3l1 2l2 3l2 2v4v4v6l1 7l1 8l2 10l3 10l2 6l2 6l3 5l2 7l3 6l3 6l4 7l5 7l2 4l2 3l5 7l5 7l6 7l6 7l6 7l7 7l9 8l5 4l6 6l7 4l7 4l7 4l8 3l8 4l8 3l8 3l9 2l9 2l9 2l9 2l9 1l10 1l9 1h10h9h10
l10 -2l10 -1l10 -1l9 -2l10 -2l9 -2l10 -3l9 -3l9 -4l9 -4l8 -4l9 -5l8 -5l7 -5l3 -3l3 -2l7 -5l5 -6l6 -5l5 -6l5 -6l5 -6l3 -7l4 -6l4 -6l3 -6l6 -13l2 -6l2 -6l3 -7l1 -6l2 -5l1 -6l3 -11l2 -10l2 -9l1 -8l1 -11l1 -2l1 -2l4 -6l2 -4l2 -4l3 -4l2 -6l1 -5l2 -6l1 -6l1 -3
v-4v-3v-4v-4l-1 -4l-2 -7l-2 -4l-1 -4v-1l1 -1l1 -4l9 -12l7 -10l3 -6l4 -7l4 -8l5 -8l4 -9l5 -10l3 -7l2 -6l2 -6l3 -6l1 -7l2 -5l2 -12l2 -11l1 -11v-5v-5v-4l-1 -5l-1 -9l-2 -8l-2 -7l-1 -3l-1 -4l-2 -2l-2 -3l-1 -2l-2 -3l-2 -2l-2 -1l-2 -1l-3 -1l-1 -1h-2h-1l-2 1
l-3 1l-1 1l-2 1l-2 2l-1 2l-3 3l-4 4l-2 5l-3 4l-2 4l-4 7l-4 8l-1 1v0l-2 -2l-1 -2l-2 -2l-2 -8l-5 -11l-5 -13l-4 -7l-4 -6l-5 -8l-6 -8l-2 -3l-4 -4l-7 -7v-1l1 -1l4 -2l16 -8l7 -4l7 -4l6 -4l6 -5l3 -2l2 -3l2 -3l2 -3l1 -3l1 -3l1 -3v-3v-2v-2l-1 -3l-1 -2l-1 -1l-1 -2
l-3 -4l-2 -3l-2 -3l-2 -2l-4 -3l-5 -3l-6 -2l-5 -3l-7 -2l-3 -1l-3 -1l-7 -2l-8 -1l-7 -2l-9 -1l-8 -1l-9 -1h-9h-9h-9l-10 1l-9 1l-10 1l-10 1l-10 1l-10 3l-10 2l-9 3l-10 3l-10 3l-5 2l-5 1l-3 1l-2 1h-4h-4l-10 1h-5l-6 1l-4 -4l-5 -3l-7 -4l-8 -4l-5 -2l-5 -2l-11 -5
l-6 -1l-7 -2l-8 -2h-6l-6 -1h-6l-7 -1h-7h-7h-15l-17 1l-16 1l-8 1l-7 2l-8 1l-8 1l-7 3l-7 1l-6 3l-6 2l-6 3l-4 3l-5 3l-2 2l-2 2l-2 2l-1 2l-2 2l-1 2l-1 5l-1 2v2v3v2v3l1 3v1v4v3l1 3l1 3l2 4l2 2l1 2l3 3l2 2l3 2l2 1l3 1l3 2l3 2l4 1l4 1l4 1h4l5 1h5l2 1v0h1v1l-1 1
l-3 2l-7 6l-5 4l-5 5l-6 5l-6 7l-6 8l-3 4l-3 4l-3 5l-3 6l-3 5l-2 6l-3 6l-3 7l-2 6l-2 8v0h-1v1h-1l-1 -1v0l-1 -1v-2l-1 -1l-1 -3l-3 -6l-2 -3l-3 -3l-2 -4l-4 -4l-3 -4l-4 -3l-3 -3l-4 -3l-5 -3l-4 -1l-5 -2h-5v0h-1h-1l-1 2l-1 1l-2 5l-1 2l-2 4l-1 4v3l-2 8v5v5v11v12
l1 6l1 7l1 6l2 7l2 7l2 7l3 7l3 7l4 7l3 8l4 7l5 7l5 7l5 8l5 5l5 7l6 6l3 3l3 3l5 4l5 5l8 7l6 4z" />
    <glyph glyph-name="qq" unicode="&#xe606;" 
d="M332 306l-1 3l-1 4v2v9v3l1 4l2 4l1 4l3 5l3 4v3v3v4l2 4l1 5l1 2l1 3l2 2l1 2v11l1 5l1 7l2 8l2 8l2 4l1 5l2 5l2 5l3 5l2 5l3 5l4 6l2 3l1 2l4 6l4 5l5 6l5 6l5 6l6 5l6 6l5 4l5 4l5 4l6 3l5 3l6 3l7 3l7 2l6 2l7 2l7 2l8 2l7 1l15 2h8h23l8 -1l8 -1l7 -1l8 -1l8 -2
l7 -2l8 -2l7 -3l7 -3l8 -3l7 -3l6 -4l7 -4l5 -4l3 -2l3 -2l5 -4l4 -5l5 -4l4 -5l4 -5l4 -5l3 -5l3 -4l3 -6l2 -5l5 -10l2 -5l2 -5l1 -5l2 -5l1 -4l1 -5l3 -9l1 -7l1 -8l1 -6l1 -9l1 -1l1 -2l3 -5l1 -3l2 -3l2 -4l2 -4l1 -5l2 -4l1 -5v-3v-3v-2v-3v-3l-1 -3l-1 -6l-2 -3
l-1 -4v-1l1 -1l1 -2l7 -10l6 -8l2 -5l4 -6l3 -6l3 -6l4 -8l4 -8l2 -5l2 -5l2 -5l1 -5l2 -5l1 -5l2 -9l1 -9l1 -8v-12l-1 -4v-7l-2 -7l-2 -5v-3l-2 -3l-1 -2l-1 -2l-1 -2l-2 -2l-2 -1l-1 -2h-2l-2 -1l-1 -1h-2l-2 1l-2 1l-1 1l-2 1l-1 1l-1 1l-3 3l-2 4l-3 3l-2 3l-2 4l-3 6
l-3 6v0h-1l-1 -1l-1 -1l-1 -2l-2 -7l-4 -8l-4 -11l-3 -5l-4 -6l-4 -6l-4 -6l-2 -3l-3 -3l-6 -6v0l1 -1l3 -2l13 -6l6 -3l5 -3l5 -4l5 -4l2 -2l2 -2l2 -2l1 -3l1 -2l1 -2v-3l1 -2l-1 -2v-2v-2l-1 -1l-1 -2v-1l-3 -3l-2 -3l-2 -2l-1 -1l-3 -3l-4 -2l-5 -2l-4 -2l-5 -2l-3 -1
l-2 -1l-6 -1l-6 -1l-6 -2l-7 -1h-7l-7 -1h-22l-8 1h-7l-8 1l-8 1l-8 1l-8 2l-8 2l-8 2l-7 3l-8 2l-4 2l-4 1l-2 1h-3h-6l-8 1h-3l-5 1l-3 -3l-5 -3l-6 -2l-6 -4l-4 -2l-4 -1l-9 -4l-5 -1l-5 -2l-7 -1h-4l-5 -1h-5l-6 -1h-23l-13 1l-13 1l-6 1l-13 2l-6 1l-6 2l-5 1l-5 2
l-5 2l-5 2l-4 2l-3 3l-2 2l-1 1l-2 2l-1 2l-1 1l-1 2l-1 3l-1 2v2v2v2v3l1 2v4v2l1 3l1 2l1 4l2 1l1 1l2 3l2 2l2 1l1 1l3 1l2 1l3 2l3 1h3l3 1l4 1h4h4l1 1v0h1v1l-1 1l-2 1l-6 5l-4 3l-4 4l-5 4l-4 6l-6 6l-2 3l-2 4l-2 4l-3 4l-2 5l-2 4l-2 5l-2 6l-2 5l-1 6h-1v0l-1 1v0
l-1 -1h-1v-1v-1l-1 -2l-1 -1l-2 -5l-2 -3l-2 -2l-2 -3l-3 -4l-2 -3l-3 -2l-3 -3l-3 -2l-4 -2l-3 -2l-4 -1h-4h-1h-1l-1 2l-1 1l-1 3l-1 2l-1 3l-1 3l-1 3l-1 7v4v12v10l1 5l1 5l1 5l1 5l2 6l2 6l2 6l2 5l3 6l3 6l3 6l4 6l4 5l4 7l4 4l4 5l5 5l2 2l3 3l4 3l4 4l6 5l5 4z
M511 -159q-91 0 -174 35q-80 34 -142 96t-96 142q-35 84 -35 175t35 174q34 80 96 142t142 96q83 35 174 35t175 -35q80 -34 142 -96t96 -142q35 -83 35 -174t-35 -175q-34 -80 -96 -142t-142 -96q-84 -35 -175 -35zM511.5 710q-114.5 0 -211.5 -56.5t-153.5 -153.5
t-56.5 -211.5t56.5 -211.5t153.5 -153.5t211.5 -56.5t211.5 56.5t153.5 153.5t56.5 211.5t-56.5 211.5t-153.5 153.5t-211.5 56.5z" />
    <glyph glyph-name="weixin" unicode="&#xe603;" 
d="M669 495q14 0 30 -2q-20 95 -110.5 157.5t-206.5 62.5q-130 0 -222 -77.5t-92 -189.5q0 -124 126 -212l-31 -94l109 55q80 -16 110 -16q14 0 30 1q-10 33 -10 66q0 103 77.5 176t189.5 73zM500 580q18 0 28.5 -11t10.5 -28.5t-10.5 -28.5t-28.5 -11t-32.5 11.5
t-14.5 28.5t14.5 28t32.5 11zM280 501q-18 0 -32.5 11.5t-14.5 28.5t14.5 28t32.5 11t29 -11t11 -28.5t-11 -28.5t-29 -11zM956 250q0 93 -80 160.5t-187 67.5q-112 0 -189.5 -67t-77.5 -161.5t77.5 -161t189.5 -66.5q31 0 94 16l86 -47l-23 78q110 83 110 181zM602 289
q-11 0 -21 10t-10 21.5t10 21.5t21 10q17 0 28.5 -9.5t11.5 -22t-11.5 -22t-28.5 -9.5zM775 289q-12 0 -21.5 10t-9.5 21.5t9.5 21.5t21.5 10q17 0 28 -9.5t11 -22t-11 -22t-28 -9.5z" />
    <glyph glyph-name="icon" unicode="&#xe607;" 
d="M519.5 748q-92.5 0 -176.5 -34.5t-144.5 -93.5t-96.5 -140.5t-36 -171t36 -171t96.5 -140.5t144.5 -94t176.5 -35t176.5 35t145 94t97 140.5t36 171t-36 171t-97 140.5t-145 93.5t-176.5 34.5zM519.5 -115q-118.5 0 -219 57t-159 154t-58.5 212t58.5 212.5t159 154
t219 56.5t219.5 -56.5t159 -154t58 -212.5t-58.5 -212t-159 -154t-219 -57zM143 318h754v-20h-754v20zM509 674h21v-731h-21v731z" />
    <glyph glyph-name="hi" unicode="&#xe611;" horiz-adv-x="1249" 
d="M512 -72q-44 0 -90 8l-210 -128v212q-84 59 -132 144.5t-48 183.5q0 114 64 211t175 153t241 56t240.5 -56t175 -153t64.5 -211t-64.5 -211t-175 -153t-240.5 -56zM512 688q-174 0 -287 -95.5t-113 -244.5q0 -91 39 -158.5t120 -116.5l18 -139l122 85q51 -11 101 -11
q174 0 287 95.5t113 244.5t-113 244.5t-287 95.5zM342 528q12 0 21 -8t9 -19v-326q0 -11 -9 -19t-21 -8t-21 8t-9 19v326q0 11 9 19t21 8zM541.5 528q12.5 0 21.5 -8t9 -19v-326q0 -11 -9 -19t-21.5 -8t-21 8t-8.5 19v326q0 11 8.5 19t21 8zM682 408q12 0 21 -8t9 -19v-206
q0 -11 -9 -19t-21 -8t-21 8t-9 19v206q0 11 9 19t21 8zM682 528q12 0 21 -9t9 -21.5t-9 -21t-21 -8.5t-21 8.5t-9 21t9 21.5t21 9zM338 368h208q11 0 18.5 -9t7.5 -21.5t-7.5 -21t-18.5 -8.5h-208q-11 0 -18.5 8.5t-7.5 21t7.5 21.5t18.5 9zM1096 415q27 66 0 131
q-13 31 -47.5 64t-65.5 46l-6 -48q54 -21 76 -72q22 -53 -2 -107zM1199 494q8 17 0.5 55.5t-17.5 62.5q-14 33 -79 53l-2 -50q12 -3 31.5 -21.5t25.5 -31.5q13 -31 0 -52z" />
    <glyph glyph-name="llsettingicon" unicode="&#xe608;" 
d="M864 303q0 -47 25 -86t67 -58q-12 -36 -30 -71q-41 16 -87 6t-79.5 -43t-43 -79t6.5 -88q-35 -18 -71 -29q-19 41 -58 66.5t-86 25.5t-85.5 -25t-57.5 -65q-36 12 -71 30q15 41 5 86t-43 78q-32 32 -76 42.5t-84 -3.5q-18 36 -29 72q38 20 61.5 58t23.5 83q0 44 -23 81.5
t-60 58.5q11 36 30 71q40 -12 83 -1.5t74.5 42t42 74.5t-2.5 83q36 18 72 30q20 -38 57.5 -60.5t82.5 -22.5t83 23t58 62q36 -11 72 -29q-14 -40 -4 -84t43 -77q32 -32 77 -42t86 5q19 -35 31 -71q-41 -20 -65.5 -58.5t-24.5 -84.5zM507.5 598q-122.5 0 -209 -86.5
t-86.5 -209t86.5 -209t209 -86.5t209 86.5t86.5 209t-86.5 209t-209 86.5zM508 235q-28 0 -48 20t-20 48t20 48t48 20t48 -20t20 -48t-20 -48t-48 -20z" />
    <glyph glyph-name="yonghu" unicode="&#xe625;" 
d="M691 242q62 43 98.5 110.5t36.5 145.5q0 130 -92 222t-222 92q-85 0 -157 -42t-113 -113.5t-41 -155.5q0 -79 36 -146.5t98 -109.5q-139 -56 -225.5 -180t-86.5 -277v0h88v0q0 153 102 267t252 132l7 0.5t17 1t22 0.5t27 -0.5t27 -1.5h5v0q146 -21 244.5 -133.5
t98.5 -263.5v0h90v0q-2 152 -88 275.5t-224 176.5zM512 266q-98 0 -166.5 68.5t-68.5 166t68.5 166t166.5 68.5t166.5 -68.5t68.5 -166t-68.5 -166t-166.5 -68.5z" />
    <glyph glyph-name="liebiao" unicode="&#xe609;" 
d="M256 492h512v-41h-512v41zM256 344h512v-41h-512v41zM256 195h512v-41h-512v41z" />
    <glyph glyph-name="liebiao1" unicode="&#xe60a;" 
d="M296 482h442v-76h-442v76zM296 329h442v-76h-442v76zM296 177h442v-77h-442v77zM810 -180h-586q-58 0 -99 41t-41 99v662q0 58 41 99.5t99 41.5h586q58 0 99 -41.5t41 -99.5v-662q0 -58 -41 -99t-99 -41zM224 686q-26 0 -45 -18.5t-19 -45.5v-662q0 -26 19 -45t45 -19
h586q27 0 45.5 19t18.5 45v662q0 27 -18.5 45.5t-45.5 18.5h-586z" />
    <glyph glyph-name="iconfontsousuo1" unicode="&#xe610;" 
d="M746 156q-14 -19 -33 -37l220 -216l36 34zM824 389q0 -104 -49 -190.5t-133.5 -135t-185.5 -48.5q-105 2 -189.5 52.5t-131.5 135.5t-47 186q0 97 49.5 180.5t134.5 132.5t184 49t184.5 -49.5t134.5 -133t49 -179.5zM454 702q-131 0 -224 -93t-93 -226t93 -226.5
t224 -93.5q86 0 160 43t117.5 116.5t43.5 160.5t-43.5 160.5t-117.5 116t-160 42.5z" />
    <glyph glyph-name="shoucang" unicode="&#xe60b;" 
d="M510 753q15 0 21 -12l97 -198q9 -18 29 -21l224 -33q14 -2 18 -14t-5 -20l-164 -161q-14 -14 -11 -33l38 -222q2 -13 -9 -20q-6 -4 -13 -4q-6 0 -12 3l-195 102q-9 5 -18.5 5t-18.5 -5l-195 -102q-5 -3 -11 -3q-8 0 -14 4q-11 7 -9 20l38 222q3 19 -11 33l-164 161
q-9 8 -5 20t18 14l224 33q20 3 29 21l98 198q6 12 21 12zM510 791q-18 0 -33.5 -9t-23.5 -25l-97 -197l-223 -33q-18 -2 -31 -13t-19 -27q-12 -34 14 -60l164 -160l-38 -222q-6 -36 26 -58q16 -10 36 -10q15 0 30 7l195 103l195 -103q14 -7 30 -7q19 0 35 10q32 22 26 58
l-38 222l164 160q26 26 14 60q-5 16 -18.5 27t-30.5 13l-224 33l-97 197q-8 16 -23 25t-33 9v0z" />
    <glyph glyph-name="baidu" unicode="&#xe7df;" 
d="M184 272q27 6 46 20t28.5 33.5t15 37.5t6 40.5t0 32.5t-2.5 23q-5 39 -43 80t-87 37q-25 -3 -45 -18.5t-30 -33.5t-17.5 -41t-8.5 -31.5t-2 -14.5v0q-2 -18 -0.5 -42t13 -48.5t27 -43.5t42.5 -28t58 -3zM303 41q-12 -32 -5 -54q4 -13 11 -23t13.5 -14.5t14 -7.5
t10.5 -3.5t4 -0.5v0h59v143h-63q-18 -6 -29.5 -18t-14.5 -22zM391 496q46 0 78.5 46t32.5 111.5t-32.5 112t-78.5 46.5t-78.5 -46.5t-32.5 -112t32.5 -111.5t78.5 -46zM656 485q38 -5 71 18t51 56.5t23 69.5q8 49 -24 97.5t-76 58.5q-42 10 -87.5 -40.5t-50.5 -99.5
q-4 -41 2 -73t29 -57t62 -30zM857 94q-14 11 -37 30.5t-77 73.5t-87 101q-36 56 -81 79.5t-85 16.5t-73.5 -29t-52.5 -54q-21 -35 -51 -67t-54.5 -53t-26.5 -23t-15 -12t-28 -22.5t-33.5 -33.5t-30 -44t-18 -54t2.5 -65q9 -40 27.5 -68.5t36 -41.5t39 -20t28.5 -7.5t12 -0.5
q83 -9 178 13q49 9 88 8t64 -8l25 -6q5 -1 13 -3.5t32.5 -7.5t47.5 -7t53 0t55 10.5t47.5 28t35.5 48.5q17 41 19 78.5t-5 60.5t-20 44t-19 26.5t-10 8.5v0zM476 -119h-144q-29 5 -51 20t-29.5 25t-10.5 17q-20 48 -11 100q7 25 21 43.5t26.5 27.5t27.5 15t20.5 7t8.5 1v0
h77v95l65 -2v-349zM746 -118h-167q-18 4 -31.5 12.5t-20 16.5t-10.5 16.5t-4.5 12t-0.5 4.5v184l67 2v-166q2 -8 8.5 -13t12.5 -6l5 -2h69v186h72v-247zM982 373q0 15 -6.5 34.5t-19 41.5t-39 37t-60.5 15q-111 0 -111 -154q0 -24 1.5 -39.5t8.5 -37.5t19.5 -35.5
t37.5 -22.5t60 -9q20 1 36 5.5t27 14t19.5 19t13 24t8 24.5t4.5 26t1 23v20.5v13.5z" />
    <glyph glyph-name="yonghu1" unicode="&#xe61a;" 
d="M904 -99q0 -3 -1 -10.5t-1 -18.5q0 -17 -13 -16t-13 16v29q0 50 -23.5 97.5t-57.5 82.5t-77 65t-79 48t-67 28q72 22 130.5 99.5t58.5 163.5q0 92 -71 163t-178 71t-177 -70.5t-70 -163.5q0 -85 58 -162t129 -101q-30 -9 -66 -27t-79 -48.5t-77.5 -65.5t-58 -83
t-23.5 -97v-29q0 -10 -7 -15.5t-14 -1.5t-7 17v29q0 54 23 106t61.5 92.5t86.5 72t100 50.5q-65 40 -108.5 114t-43.5 149q0 109 80 185t193 76t194 -76.5t81 -184.5q0 -75 -44 -149t-110 -114q52 -19 100 -50.5t86.5 -72t61.5 -92.5t23 -106v0zM904 -99z" />
    <glyph glyph-name="shezhi1" unicode="&#xe60c;" horiz-adv-x="4096" 
d="M2171 300l41 -1v-40h-41q-5 -27 -20 -48l30 -27l-31 -37l-33 30q-22 -14 -48 -18v-42h-42v42q-25 5 -47 18l-33 -30l-31 37l30 27q-14 21 -19 48h-42v41l42 -1q4 28 19 51l-30 27l31 36l33 -30q21 14 47 18v43h42v-42q27 -5 48 -19l33 30l31 -36l-30 -27q16 -22 20 -50v0
zM2049 360q-34 0 -57.5 -23.5t-23.5 -56.5t23.5 -56.5t57 -23.5t57.5 23.5t24 56.5t-24 56.5t-57 23.5v0z" />
    <glyph glyph-name="liwu" unicode="&#xe657;" 
d="M899 633h-181q17 29 17 63q0 46 -30 79.5t-83 33.5q-52 0 -87 -35q-17 -17 -29 -44q-12 26 -29 44q-35 35 -87 35q-53 0 -85 -36q-28 -32 -28 -77q0 -34 17 -63h-169q-11 0 -19 -7.5t-8 -19.5v-245q0 -11 8 -19t19 -8h37v-346q0 -12 8 -19.5t19 -7.5h249h148h249
q11 0 19 7.5t8 19.5v346h37q11 0 19 8t8 19v245q0 12 -8 19.5t-19 7.5zM574 736q19 19 48 19q30 0 44.5 -17.5t14.5 -41.5q0 -26 -15 -44q-16 -18 -44 -19l-86 1q7 71 38 102zM331 696q0 25 15 42t44 17t48 -19q30 -31 37 -103h-37h-48q-31 0 -45 20t-14 43zM152 579h238h21
v-191h-259v191zM216 334h195v-319h-195v319zM465 15v564h38h56v-564h-94zM808 15h-195v319h195v-319zM872 388h-259v191h9v0h250v-191z" />
    <glyph glyph-name="faxian" unicode="&#xe642;" 
d="M945 324q-9 13 -25 31.5t-60.5 61t-91 75t-113.5 58.5t-131.5 26t-132 -26.5t-114 -58.5t-91 -74.5t-60 -61t-24.5 -31.5l-6 -7l6 -8q9 -12 24.5 -31t60 -61t91 -74.5t114 -58.5t132 -26t132 26t113.5 58.5t90.5 75t60 60.5t25.5 31l5 8zM523 84q-55 0 -113 21
t-100.5 48.5t-84 64t-61.5 58.5t-35 41q15 19 35 40.5t61.5 58.5t84 64.5t100.5 48.5t113 21t113 -21t100.5 -48.5t84.5 -64.5t61.5 -58.5t35.5 -40.5q-16 -19 -35.5 -41t-61.5 -58.5t-84.5 -64t-100.5 -48.5t-113 -21zM523 510q-80 0 -136.5 -56.5t-56.5 -136.5
t56.5 -136.5t136.5 -56.5t137 56.5t57 136.5t-57 136.5t-137 56.5zM523.5 149q-69.5 0 -118.5 49.5t-49 118.5t49 118t118.5 49t118.5 -49t49 -118t-49 -118.5t-118.5 -49.5z" />
    <glyph glyph-name="shoucang1" unicode="&#xe7c6;" 
d="M944 420l-287 42q-1 0 -1 1l-128 259q0 1 -1 0l-128 -259q0 -1 -1 -1l-287 -42q-1 0 0 0l207 -202q1 -1 1 -2l-49 -285v-1h1l256 135h1q0 31 14 52t33 21h66v67q0 19 22.5 33t53.5 14q25 0 45 -9l182 177q1 0 0 0zM831 100h-76v76q0 16 -11 27t-27 11t-27 -11t-11 -27
v-76h-76q-15 0 -26.5 -11t-11.5 -26.5t11.5 -27t26.5 -11.5h76v-75q0 -16 11 -27t27 -11t27 11t11 27v75h76q16 0 27 11.5t11 27t-11 26.5t-27 11z" />
    <glyph glyph-name="shoucang2" unicode="&#xe639;" 
d="M669 570q61 0 106.5 -39t53.5 -98q11 -81 -46 -141q-86 -88 -256 -259q-4 -3 -9 -3t-8 3q-134 134 -248 249q-45 46 -54 100q-9 50 12.5 95.5t64.5 70.5q38 22 81 22q64 0 111 -44q18 -17 38 -17q16 0 30 8q7 5 20 15q25 16 35 22q33 16 69 16zM669 624q-48 0 -92 -23
q-10 -4 -19.5 -10.5t-22 -15.5t-19.5 -13v0q-2 1 -3 2q-63 59 -147 59q-57 0 -107 -29q-58 -33 -86.5 -94t-16.5 -127q12 -71 69 -128q115 -116 247 -249q19 -19 46 -19t46 19q170 170 257 259q75 78 60 185q-11 80 -72.5 132t-139.5 52v0z" />
    <glyph glyph-name="biaoqing" unicode="&#xe6fc;" 
d="M512 700q79 0 151 -30q70 -30 123.5 -83.5t83.5 -123.5q30 -72 30 -151t-30 -151q-30 -70 -83.5 -123.5t-123.5 -83.5q-72 -30 -151 -30t-151 30q-70 30 -123.5 83.5t-83.5 123.5q-30 72 -30 151t30 151q30 70 83.5 123.5t123.5 83.5q72 30 151 30zM512 760
q-122 0 -225 -60t-163 -163t-60 -225t60 -225t163 -163t225 -60t225 60t163 163t60 225t-60 225t-163 163t-225 60v0zM364 539zM304 539q0 25 18 43t42.5 18t42.5 -18t18 -43t-18 -42.5t-42.5 -17.5t-42.5 17.5t-18 42.5zM644 539zM584 539q0 25 17.5 43t42.5 18t43 -18
t18 -43t-18 -42.5t-43 -17.5t-42.5 17.5t-17.5 42.5zM512 24q117 0 199.5 82.5t82.5 199.5h-564q0 -117 82.5 -199.5t199.5 -82.5z" />
    <glyph glyph-name="shoucang3" unicode="&#xe623;" 
d="M1003 411q-12 37 -69 55h-2l-208 52q-33 46 -135 187l-1 1q-33 43 -76 43t-75 -45l-116 -171q-71 -20 -155 -43l-76 -21q-53 -16 -66 -50q-14 -36 19 -86l2 -2q88 -101 136 -156q-2 -78 -7 -226q-5 -54 18 -78q17 -19 47 -19q23 0 59 12l200 74q107 -36 228 -77
q22 -6 41 -6q12 0 23.5 3t24.5 12t21.5 28t9.5 47v3q-4 62 -12 201v1l147 180q34 45 22 81zM944 357l-152 -186q-6 -7 -5 -15v-10q2 -22 6 -92t7 -108q-1 -16 -4.5 -26.5t-9.5 -14t-9.5 -4.5t-9.5 -1q-12 0 -27 4q-161 55 -235 79q-8 3 -16 0l-207 -76q-28 -10 -43 -10
q-9 0 -13 4q-9 10 -6 44l1 1q3 105 7 236q0 8 -5 15q-51 58 -141 162q-20 30 -15 44q6 14 36 23l76 21q127 35 163 45q9 2 14 9l120 178q17 25 36 25t39 -25q133 -184 140 -194q5 -7 13 -9l216 -53q34 -11 39 -26q5 -14 -15 -40v0z" />
    <glyph glyph-name="weixin1" unicode="&#xe63b;" 
d="M499 467q20 0 32 12t12 32t-12 32t-32 12q-21 0 -37 -12.5t-16 -31.5t16 -31.5t37 -12.5zM253 555q-21 0 -37 -12.5t-16 -31.5t16 -31.5t37 -12.5q20 0 32 12t12 32t-12 32t-32 12zM1024 186q0 104 -84 182t-203 87v6q-24 111 -130 185t-240 74q-99 0 -184 -42
t-134 -114.5t-49 -158.5q0 -142 138 -243l-32 -94q-3 -10 5 -17q4 -4 10 -4q4 0 8 2l117 59l15 -3q68 -14 106 -14q17 0 34 1q7 1 11 6q33 -81 114.5 -132t183.5 -51q37 0 103 17l91 -50q3 -2 7 -2q6 0 11 3q8 7 5 18l-23 77q120 95 120 208zM399 124q-16 -1 -32 -1
q-35 0 -100 13l-20 4q-5 1 -10 -1l-88 -45l23 69q3 12 -6 19q-134 93 -134 223q0 77 45 142t122 103t168 38q123 0 219.5 -66t118.5 -166q-129 -1 -219.5 -80t-90.5 -190q0 -31 9 -63q-3 1 -5 1zM875 -4q-8 -6 -5 -17l15 -50l-62 34q-4 2 -8 2q-2 0 -4 -1q-67 -17 -101 -17
q-117 0 -200 70t-83 169t83 169t200 70q115 0 198.5 -71t83.5 -168q0 -49 -30 -98t-87 -92zM613 300q-13 0 -24 -11t-11 -24t11 -24t24 -11q19 0 31.5 10.5t12.5 24.5t-12.5 24.5t-31.5 10.5zM806 300q-13 0 -24 -11t-11 -24t11 -24t24 -11q19 0 31.5 10.5t12.5 24.5
t-12.5 24.5t-31.5 10.5z" />
    <glyph glyph-name="dianzan" unicode="&#xe60d;" 
d="M868 245q16 0 30 17.5t19 42t4 49t-15 42t-38 17.5h-168q35 58 55.5 107t26.5 82.5t3 60.5t-12.5 42.5t-23 26t-26 14t-23.5 3.5q0 -68 -61.5 -142t-157 -132t-201.5 -90v-448h-56v448h56v28h-112q-23 0 -39.5 -24.5t-16.5 -59.5v-336q0 -35 16.5 -59.5t39.5 -24.5h112
v28q65 -7 108.5 -18.5t65.5 -22.5t45.5 -21t65 -16t107.5 -6q46 0 79 22t33 62q26 0 46 36t20.5 67.5t-10.5 36.5q27 0 46.5 42t15.5 84t-34 42v0zM868 245z" />
    <glyph glyph-name="pinglun" unicode="&#xe612;" 
d="M846 711h-671q-46 0 -79 -33t-33 -79v-448q0 -46 33 -79t79 -33h220l116 -141l115 141h220q47 0 79.5 33t32.5 79v448q0 46 -32.5 79t-79.5 33zM256.5 290q-35.5 0 -60.5 25t-25 60.5t25 60.5t60.5 25t60.5 -25t25 -60.5t-25 -60.5t-60.5 -25zM509.5 290
q-35.5 0 -60.5 25t-25 60.5t25 60.5t60.5 25t60.5 -25t25 -60.5t-25 -60.5t-60.5 -25zM761.5 290q-35.5 0 -60.5 25t-25 60.5t25 60.5t60.5 25t60.5 -25t25 -60.5t-25 -60.5t-60.5 -25z" />
    <glyph glyph-name="dianzan1" unicode="&#xe636;" 
d="M840 239q1 0 3 -1t7.5 -6t9.5 -12t7 -19.5t2 -28.5q-1 -17 -6 -30t-10.5 -20t-11.5 -11.5t-10 -5.5l-3 -1q1 -2 2 -5.5t2.5 -17.5t-3.5 -32q-9 -39 -47 -64q-6 -42 -35 -64q-17 -14 -43.5 -18.5t-60 -1.5t-59.5 7.5t-62 12.5t-47 11q-61 11 -148 21.5t-112 6.5v0
q-11 -3 -23 32t-20.5 87t-13.5 104.5t-2.5 91t13.5 41.5q113 28 171 53q20 9 44 39.5t50 65t48 49.5q41 28 67.5 56.5t36 48.5t14.5 36t9.5 25t14.5 10h4q19 0 31.5 -1t36.5 -7.5t39.5 -19.5t29.5 -40t17 -65q1 -22 -4 -41.5t-9.5 -28.5t-18.5 -31t-19 -31t-6 -13.5t3.5 -7
t9.5 -3t18 -1.5q9 0 14.5 -0.5t15 -1.5t18.5 -3q28 -5 46.5 -33.5t17.5 -65.5q0 -26 -7 -42.5t-14 -19.5zM809 313q0 16 -13 29.5t-36 15.5q-9 1 -27 2q-18 2 -27 2.5t-22 3t-18 6t-10 9t-4 14t6 20.5q10 22 24 49.5t21 42t12.5 33t5.5 36.5q0 30 -14.5 51t-37.5 21
q-10 -1 -17.5 -15t-15 -34t-34 -51.5t-69.5 -61.5q-20 -14 -86 -89.5t-88 -84.5q-17 -8 -43.5 -14.5t-55 -11.5t-38.5 -7q-9 -3 -11 -32t2 -69t11 -79.5t17 -65.5t19 -24h-3q21 4 96 -5.5t127 -18.5q5 -1 33 -6.5t43.5 -8t43 -6.5t45 -4t36 3t29.5 10q22 15 22 57q5 2 11 6
t17.5 17.5t13.5 29.5q1 15 -2 28.5t-7 18.5l-5 5q1 1 5 0t11.5 1t15 5.5t13.5 13t8 23t-1.5 25t-9.5 19t-12 13t-11 7.5l-5 3q4 2 10 6t15.5 21.5t9.5 40.5z" />
    <glyph glyph-name="back" unicode="&#xe63d;" 
d="M738 691l-446 -408l446 -407q12 -12 12 -28.5t-11.5 -28t-28 -11.5t-28.5 12l-475 433q-12 12 -11 30q-1 18 11 30l475 434q12 12 28.5 12t28 -12t11.5 -28.5t-12 -27.5z" />
    <glyph glyph-name="qq01" unicode="&#xe61b;" 
d="M512 561q-84 0 -143 -72q-61 -73 -64 -182q0 -5 -2 -9v0q-8 -12 -8 -14q-1 -1 -4 -6.5t-5 -8.5q-16 -34 -20 -70q-4 -26 3 -33v0q0 1 1 1q6 3 15 11q6 6 11 14q4 5 11 6.5t12 -2.5q5 -5 6 -8v0q5 -13 14 -31q8 -16 17 -29q4 -6 3 -13t-7 -10l-5 -3q-17 -6 -27 -15
q-7 -7 -7 -12q0 -12 26 -24q32 -15 79 -15q26 0 50 5q23 5 37 14q10 5 18 0q16 -9 37 -14q22 -5 50 -5q46 0 79 15q25 12 25 24q0 5 -6 12q-11 9 -28 15q-16 6 -10 22v1l1 2v0q2 3 18 29q6 10 14 31q2 7 8.5 10t12.5 0q7 -3 9 -6q6 -8 10 -12q8 -10 15 -12l1 -1v0q6 6 3 33
q-4 34 -20 69h-1q-6 13 -8 15q-2 3 -5 8.5l-3 5.5q-2 5 -2 9q-3 107 -64 182q-66 73 -147 73v0zM343 511q69 85 169 85t169 -85q67 -82 71 -198q6 -11 7 -12q1 -2 3 -5t3.5 -6t2.5 -6q0 -1 1 -1q20 -41 23 -79q6 -44 -13 -61q0 -1 -1.5 -1.5t-1.5 -1.5q-14 -10 -33 -3
q-12 5 -22 15q-3 -7 -5 -9q-1 -3 -4 -8t-4 -8q11 -5 21 -15q17 -17 17 -36q0 -33 -44 -55q-39 -17 -92 -17q-31 0 -57 7q-22 4 -39 13q-15 -8 -39 -13q-28 -7 -58 -7q-53 0 -92 17q-44 20 -44 55q0 19 17 36q10 9 21 15q-5 7 -9 16q0 1 -2 4.5t-3 5.5q-10 -10 -21 -15
q-19 -8 -33 3q-1 1 -2 1.5t-1 1.5q-19 17 -14 61q4 38 24 79l9 18q6 8 8 11q1 55 21 109.5t47 88.5zM268 167v0v0zM756 167v0v0z" />
    <glyph glyph-name="dongtai" unicode="&#xe613;" 
d="M392 665q-2 -3 -10.5 -14t-14.5 -20.5t-10 -19.5q-11 -29 -15 -62.5t4 -63.5q3 -8 13.5 -21t13.5 -20q-1 -3 -4.5 -7t-3.5 -6q-21 -2 -33 10.5t-23 35.5q-10 56 1 110q10 47 38 84q12 16 21 22t23.5 8.5t21.5 -6.5q8 -17 -22 -30zM654 427q2 11 17 18q25 50 17.5 99.5
t-38.5 88.5q-2 3 -10.5 11.5t-13.5 15t-4 11.5q0 9 10.5 13t21.5 -2q14 -7 45 -55q28 -42 30 -88q1 -30 -5 -62t-17 -44q-10 -10 -25 -13.5t-28 7.5zM757 390q3 13 14.5 33t13 23t6 16.5t9.5 20.5q1 8 5 23t5 21q1 12 1 27t-0.5 23t-3 27t-3.5 23q-3 6 -11 22.5t-15 23.5
q-8 9 -28 18.5t-28 15.5q0 4 2 8.5t2 5.5q11 7 33 4q35 -19 47 -28q24 -27 35.5 -67.5t8.5 -85.5q-3 -54 -43 -130q-4 -5 -35 -27q-2 2 -7.5 2t-7.5 1zM271 408q-4 -5 -15.5 -1t-14.5 3q-5 4 -16.5 11t-15.5 10q-31 37 -33 74q-3 45 0 57q10 52 35 94q0 1 3 2.5t3.5 3t1 4.5
t1.5 5q2 3 8 9.5t9 9.5q2 3 6 11.5t7 12.5q1 1 6 4.5t7 5.5t6 7t6.5 7.5t7.5 6t9 3t11 -2.5q14 -8 6 -23.5t-21 -18.5q1 -9 -7 -9q-3 -9 -14 -22.5t-14 -19.5q-3 -4 -7.5 -10.5t-6.5 -10.5q-3 -6 -7 -19.5t-5.5 -16.5t-4.5 -7t-3 -6q-19 -52 -2 -98q5 -12 23 -31t22 -33
q1 -1 3.5 -1.5t3 -1.5l1.5 -3t1 -6zM571 423q6 -19 9 -41.5t6 -60t4 -46.5q3 -24 9.5 -69t9.5 -62q6 -47 13.5 -131t9.5 -107q-1 -5 -7 -9t-7 -5q-1 -3 4.5 -9.5t4.5 -11.5q-1 -9 -19.5 -13.5t-36.5 -4.5q-41 -1 -63 2q-6 1 -29 5t-37 6q-55 8 -76 26q-2 0 -7 1t-8 2t-5 3
q3 44 28 183q5 26 21 100q1 4 7.5 36.5t10.5 48.5q2 9 8 28t8 24q7 26 39 110q-42 16 -61.5 56t3.5 85q18 28 54 43q26 10 61 10q45 0 75 -32t32 -75q1 -18 -9 -43q-9 -21 -9 -22q-5 -6 -21.5 -14.5t-21.5 -12.5zM523 588q-13 -13 -24.5 -29.5t-26 -38t-21.5 -32.5
q-10 3 -3 21q3 6 14 18.5l11 12.5q2 11 14.5 24t15.5 23q-16 -1 -24.5 -12t-15.5 -26t-16 -21q-3 -16 -13 -21q13 -28 27 -35q11 24 38 62t35 53q0 1 -11 1zM549 582q-19 -18 -44 -60t-36 -56q4 -10 20 -12q0 21 20 47t24 35q6 2 15 16.5t20 9.5q-7 -10 -23.5 -33t-28 -40.5
t-21.5 -35.5q2 -1 5 -1.5t7 0t6 -0.5q14 32 33 51q2 4 6.5 12t7 12.5t8 9.5t11.5 8q3 -6 -4 -16t-7 -17q-22 -25 -38 -61q2 -1 19 -1q8 7 17.5 27.5t16.5 27.5l5 2.5t5 6.5q-8 54 -44 69zM435 528q3 7 13.5 21.5t14.5 24.5q-14 -3 -22.5 -17.5t-5.5 -28.5zM498 397
q1 4 7.5 9t6.5 10q-5 5 -9 0.5t-5 -11t0 -8.5zM534 416q-5 -6 -19 -20t-21.5 -22.5t-15 -23.5t-8.5 -30q11 9 30 36q3 4 10.5 10.5t9.5 9.5q1 1 2 4.5t2 4.5t3.5 1.5l2.5 0.5q11 10 9 29h-5zM537 381q0 -3 -5 -4q-5 -9 -29 -39q-5 -7 -17 -18t-17 -17q-7 -9 -10.5 -18
t-6.5 -23.5t-5 -21.5q7 6 13.5 13.5t14.5 18t11 14.5q5 6 18.5 21.5t22.5 27t16 22.5q1 17 -2 24h-4zM539 299q11 16 8 32l-1 1t-3 1q-23 -24 -35 -45q-8 -5 -14.5 -12t-15 -18t-13.5 -17l-4.5 -4.5t-4.5 -5t-4 -5t-4 -5t-3.5 -5t-3.5 -5.5l-2.5 -5t-2.5 -5.5t-1.5 -5.5
t-0.5 -6q20 17 53.5 55.5t51.5 54.5zM529 270l-7.5 -7.5l-8.5 -8.5q-4 -5 -13 -12.5t-13 -11.5q-1 -1 -1 -4t-1 -4q-1 -2 -4.5 -3t-4.5 -2q-4 -4 -10 -12.5t-9 -11.5l-2 -0.5t-3 -0.5q-2 -3 -9 -12t-12 -12q-12 -34 -9 -47q62 69 106 120q2 3 8.5 10t9 10.5t4.5 10.5t1 15
q-1 0 -1.5 1t-0.5 2q-6 -2 -9 -4.5t-6 -8t-5 -7.5zM550 248q-23 -29 -68.5 -78t-62.5 -68q0 -7 -5 -19.5t-4 -18.5q4 2 7 5.5t6 8t6 7.5q0 1 2.5 1.5t3.5 0.5q5 5 13 17.5t11 15.5q0 1 3 1.5t3 1.5q7 6 17 19.5t13 17.5q3 3 9 7t8 6q1 2 3 6.5t4 7.5t9 8t9 9q1 1 2.5 5
t2.5 5t5 5.5t6 7t4 6.5t1 7.5t-5 7.5h-3zM555 207q-17 -19 -48 -53t-56.5 -62t-46.5 -54q0 -6 -3.5 -18t-3.5 -17q16 5 26 26q31 30 50 58q16 14 42.5 48t43.5 48q7 12 1 24h-5zM562 168q-1 -3 -9 -6q-5 -11 -20.5 -26t-17.5 -17t-3.5 -6t-3 -6t-5.5 -4t-5 -4
q-7 -7 -20.5 -24.5t-21.5 -26.5q-1 -1 -8 -8.5t-9.5 -10.5t-8.5 -10t-8.5 -11.5t-6 -10.5t-5.5 -11q-4 -4 -9.5 -12t-8.5 -11q-5 -11 -5 -30q3 1 6 3t4 3.5t3 5.5t2 5q8 7 15 15t15.5 19t13.5 16q9 11 25 31.5t20 25.5l11 11t10 12q1 1 1.5 4t1.5 5q2 3 7.5 8t7.5 7
q3 3 6.5 10t5.5 10q3 3 9.5 9t9.5 9.5t6 11t-1 14.5h-4zM397 -81q-2 0 -4 3.5t-6 3.5q-4 -3 0 -15q7 1 9.5 1t8 -2t8.5 -3q112 131 160 199q-1 2 -1.5 13t-4.5 13q-22 -30 -81.5 -100.5t-88.5 -112.5zM530 -5q6 7 17 23.5t17 24.5q1 1 4 5t4 5t3 4t2.5 4.5l1.5 4.5t0 5.5
l-2 5t-4 5.5q0 -1 -6 -2q-17 -27 -57 -74t-57 -74q-2 0 -4.5 -2l-2.5 -2q-2 -3 -8.5 -11.5t-6.5 -14.5q3 -3 22 -4q11 19 42.5 55.5t34.5 41.5zM498 -94q2 1 4 3t2.5 4t2 5.5t1.5 4.5q13 16 56 70q2 2 6.5 7.5t6 8t4 7.5t3 8t-0.5 7.5t-4 8.5q-3 -4 -33 -41.5t-43 -59.5
q-24 -18 -30 -43q3 0 10.5 -2t12.5 -1q0 3 1 6.5t1 6.5zM585 -33q4 16 -1 28q-15 -12 -35 -41.5t-30 -39.5q-1 -5 -5 -12.5t-5 -11.5q6 -3 25 -4q28 55 51 81zM550 -114q12 -3 18.5 2t12 15t9.5 13v16.5t-1 15.5q-2 0 -4 1q-4 -8 -17.5 -28t-17.5 -35z" />
    <glyph glyph-name="icon1" unicode="&#xe60e;" 
d="M510 -71q-5 0 -12 3q-8 4 -28 15t-59.5 36.5t-79.5 56.5t-84 75.5t-78 92t-56 108t-22 121.5q0 99 71 170t170 71q51 0 97.5 -21t80.5 -58q34 38 80.5 58.5t97.5 20.5q100 0 170.5 -71t70.5 -170q0 -61 -22 -121.5t-55.5 -108t-77.5 -92t-84.5 -75.5t-80 -56.5
t-59.5 -36.5t-27 -15q-7 -3 -13 -3v0zM332 624q-77 0 -132 -55t-55 -132q0 -67 33 -135t76.5 -116.5t100.5 -94t91.5 -67.5t63.5 -38q30 16 64 38t91.5 67.5t101 94t76 116.5t32.5 135q0 77 -54.5 132t-132.5 55q-47 0 -88 -22.5t-67 -61.5q-8 -12 -23 -12t-22 12
q-27 39 -68 61.5t-88 22.5v0zM332 624zM509 -17q-5 0 -11 3q-7 3 -25 13t-53 32.5t-70.5 50t-75 67t-69 82t-49.5 96t-20 107.5q0 89 63 151.5t152 62.5q93 0 158 -69q62 69 158 69q88 0 151 -62.5t63 -151.5q0 -54 -19.5 -107.5t-49.5 -96t-69 -82t-75 -67t-71 -50
t-53 -32.5t-24 -13q-7 -3 -11 -3v0zM351 600q25 -20 73.5 -49.5t81.5 -50t59 -52t26 -62.5q-8 -336 -64 -376q-17 -12 -29 8q-10 15 0 19q4 1 11 -3q10 6 10.5 19.5t-8 33t-21.5 46t-28.5 55.5t-31.5 64t-29 70t-21.5 76t-8.5 78q0 42 75.5 82t150 57t70.5 1
q-4 -19 -22.5 -31t-39.5 -17t-43.5 -16t-32.5 -26q-7 -11 -20 -11t-20 11t-22 9t-33 -6.5t-37.5 -12t-34.5 -8.5t-24 4.5t-6.5 27.5t19.5 60v0zM304 587z" />
    <glyph glyph-name="tianjia" unicode="&#xe61e;" horiz-adv-x="1026" 
d="M514 812q-104 0 -199 -40.5t-163.5 -109t-109 -163.5t-40.5 -199t40.5 -199t109 -163.5t163.5 -109t199 -40.5t199 40.5t163.5 109t109 163.5t40.5 199t-40.5 199t-109 163.5t-163.5 109t-199 40.5zM513.5 -159q-93.5 0 -178.5 36t-146.5 97.5t-97.5 147t-36 178.5
t36 178.5t97.5 147t146.5 97.5t178.5 36t178.5 -36t146.5 -97.5t98 -147t36.5 -178.5t-36.5 -178.5t-98 -147t-146.5 -97.5t-178.5 -36zM774 319h-241v241q0 11 -8 18.5t-19 7.5t-18.5 -7.5t-7.5 -18.5v-241h-241q-11 0 -18.5 -8t-7.5 -18.5t7.5 -18.5t18.5 -8h241v-241
q0 -11 7.5 -18.5t18.5 -7.5t19 7.5t8 18.5v241h241q11 0 18.5 8t7.5 18.5t-7.5 18.5t-18.5 8z" />
    <glyph glyph-name="shoucangshixin" unicode="&#xe60f;" horiz-adv-x="1048" 
d="M524 788l147 -314l329 -50l-238 -244l56 -344l-294 162l-294 -162l56 344l-238 244l329 50z" />
    <glyph glyph-name="shezhi2" unicode="&#xe6f5;" 
d="M860 291l-7.5 -2.5t-5.5 -1.5q-1 -56 -20 -108q0 -1 1 -1q16 -13 47 -38.5t45 -36.5l-41 -71q-17 6 -54 20.5t-55 22.5h-1.5h-0.5q-37 -45 -88 -75v-2q4 -20 12 -60.5t11 -56.5l-77 -28q-6 13 -26 49.5t-30 54.5l-1 2q-31 -5 -58 -5t-57 5q-1 0 -1 -0.5v-1.5
q-10 -18 -29.5 -54t-27.5 -50l-76 28q3 15 11 56t12 61v2q-51 30 -89 75h-0.5h-0.5q-18 -8 -55 -22.5t-54 -20.5l-41 71q13 11 44.5 36.5t46.5 38.5q1 0 2 1q-19 52 -20 108q-1 0 -6 1.5t-7 2.5q-74 24 -100 42l14 81q28 8 96 6q9 0 26 -1q18 48 50 89q-10 15 -14 22
q-35 59 -43 87l62 53q27 -13 77 -58q4 -4 19 -18q45 25 95 35q2 17 4 26q10 68 22 95h81q12 -27 22 -95q1 -9 3 -26q51 -10 95 -35q15 13 20 18q50 45 76 58l62 -53q-7 -28 -43 -87q-4 -7 -13 -22q31 -41 50 -89q17 1 26 1q68 2 95 -6l14 -81q-25 -18 -99 -42zM511 524
q-93 0 -158.5 -65.5t-65.5 -158.5t65.5 -159t158.5 -66t158.5 66t65.5 159t-65.5 158.5t-158.5 65.5z" />
    <glyph glyph-name="nearby" unicode="&#xe63a;" 
d="M510.5 405q30.5 0 52 21.5t21.5 52t-21.5 52t-52 21.5t-52 -21.5t-21.5 -52t21.5 -52t52 -21.5zM510.5 533q22.5 0 38.5 -16t16 -38.5t-16 -38.5t-38.5 -16t-38.5 16t-16 38.5t16 38.5t38.5 16zM814 52q-39 -90 -120.5 -144.5t-182.5 -54.5t-183 55.5t-120 145.5l-35 -18
q44 -99 135 -160.5t203 -61.5q111 0 202 60.5t135 159.5zM787 455q0 1 0.5 2.5t0.5 2.5q0 115 -81 196t-196 81t-196 -81t-81 -196q0 -37 11 -74q0 -1 0.5 -2t0.5 -2q10 -28 26 -59q14 -24 28 -41l210 -323l206 316q19 21 34 47q6 10 11 21q1 1 2 3t1 3q4 7 6 14q4 10 8 23
v0q1 3 4 22zM510.5 701q99.5 0 170 -70.5t70.5 -169.5q0 -43 -16 -84v0l-8 -20q-14 -30 -36 -54l-180 -273l-179 270q-24 27 -39 60l-7 17q-16 41 -16 84q0 99 70.5 169.5t170 70.5z" />
    <glyph glyph-name="yonghu2" unicode="&#xe647;" 
d="M381 221q-143 88 -148 243q-4 114 76 197q86 90 206 88.5t204 -92.5q59 -64 70 -150.5t-28 -165.5t-119 -120q22 -9 23 -10q170 -73 231 -245q3 -11 19 -83q1 -6 -1 -14q-5 -19 -23 -18q-20 0 -24 19q-13 64 -14 67q-71 211 -280 248q-182 33 -316 -101
q-83 -84 -100 -207q-3 -22 -19 -26q-12 -3 -21 5t-8 21q9 96 61 177q71 109 191 158q2 1 16 7zM512 240q94 0 161 66t68 159q2 98 -65 165.5t-159 69.5q-94 2 -164 -64t-71 -163q-2 -96 65.5 -164.5t164.5 -68.5z" />
    <glyph glyph-name="fenxiang" unicode="&#xe614;" 
d="M927 350v-303q0 -67 -47.5 -114.5t-114.5 -47.5h-506q-67 0 -114.5 47.5t-47.5 114.5v506q0 67 47.5 114.5t114.5 47.5h296q12 0 17.5 8t0.5 16.5t-17 8.5h-297q-81 0 -138 -57t-57 -138v-506q0 -81 57 -138t138 -57h506q81 0 138 57t57 138v303q0 9 -8.5 13t-16.5 0
t-8 -13zM943 748h-287q-7 0 -11.5 -5t-4.5 -11.5t4.5 -11.5t11.5 -5h249l-621 -621q-11 -11 0 -23q5 -5 12 -5t11 5l620 620v-246q0 -6 5 -11t11.5 -5t11.5 5t5 11v286q0 7 -5 12t-12 5z" />
    <glyph glyph-name="liebiao2" unicode="&#xe615;" 
d="M512 750q-91 0 -174.5 -36t-143.5 -96t-96 -143.5t-36 -174.5t36 -174.5t96 -143.5t143.5 -96t174.5 -36t174.5 36t143.5 96t96 143.5t36 174.5t-36 174.5t-96 143.5t-143.5 96t-174.5 36zM512 -79q-103 0 -190.5 50.5t-138 138t-50.5 190.5t50.5 190.5t138 138
t190.5 50.5t190.5 -50.5t138 -138t50.5 -190.5t-50.5 -190.5t-138 -138t-190.5 -50.5zM315 497h113v-113h-113v113zM456 497h112v-113h-112v113zM596 497h113v-113h-113v113zM596 356h113v-112h-113v112zM596 216h113v-113h-113v113zM456 216h112v-113h-112v113zM315 216
h113v-113h-113v113zM315 356h113v-112h-113v112zM456 356h112v-112h-112v112z" />
    <glyph glyph-name="you" unicode="&#xe66e;" 
d="M723 311l-409 410q-5 5 -12.5 5t-12.5 -5t-5 -12t5 -12l398 -398l-398 -397q-5 -5 -5 -12.5t5 -12.5t12.5 -5t12.5 5l409 410q5 5 5 12t-5 12z" />
    <glyph glyph-name="fenxiang1" unicode="&#xe66f;" 
d="M811 129q-33 0 -61 -15t-46 -42l-291 162q14 32 14 66q0 45 -22 84l220 135q39 -48 100 -48q53 0 90.5 37.5t37.5 90.5t-37.5 90.5t-90.5 37.5t-90.5 -37.5t-37.5 -90.5q0 -22 8 -42l-226 -139q-50 53 -123 53q-71 0 -121 -50t-50 -121t50 -121t121 -50q41 0 76.5 18.5
t59.5 49.5l295 -164q-4 -16 -4 -32q0 -53 37.5 -90.5t90.5 -37.5t90.5 37.5t37.5 90.5t-37.5 90.5t-90.5 37.5zM725.5 684q35.5 0 60.5 -25t25 -60.5t-25 -60.5t-60.5 -25t-60.5 25t-25 60.5t25 60.5t60.5 25zM256 172q-53 0 -90.5 37.5t-37.5 90.5t37.5 90.5t90.5 37.5
t90.5 -37.5t37.5 -90.5t-37.5 -90.5t-90.5 -37.5zM810.5 -84q-35.5 0 -60.5 25t-25 60.5t25 60.5t60.5 25t60.5 -25t25 -60.5t-25 -60.5t-60.5 -25z" />
    <glyph glyph-name="weixin2" unicode="&#xe616;" 
d="M371 693q-92 0 -170.5 -38.5t-124.5 -105.5t-46 -147q0 -135 137 -230l-35 -102l120 59q86 -17 119 -17q15 0 32 2q-10 36 -10 71q0 112 84 191t206 79q14 0 32 -2q-22 103 -120 171.5t-224 68.5zM260 462q-20 0 -35.5 12t-15.5 30.5t15.5 30.5t35.5 12t31.5 -11.5
t11.5 -30.5t-11.5 -31t-31.5 -12zM499 462q-20 0 -35.5 12t-15.5 30.5t15.5 30.5t35.5 12q19 0 31 -11.5t12 -30.5t-12 -31t-31 -12zM994 189q0 67 -40.5 124t-107 90.5t-142.5 33.5q-121 0 -205.5 -72.5t-84.5 -175.5t84.5 -175t205.5 -72q34 0 103 17l93 -52l-26 86
q120 89 120 196zM610 232q-13 0 -23.5 10.5t-10.5 23.5t10.5 23.5t23.5 10.5q19 0 31 -10.5t12 -24t-12 -23.5t-31 -10zM798 232q-13 0 -23.5 10.5t-10.5 23.5t10.5 23.5t23.5 10.5q18 0 30 -10.5t12 -24t-12 -23.5t-30 -10z" />
    <glyph glyph-name="youyou" unicode="&#xe617;" 
d="M695 303l-410 -413l-28 28l382 385l-382 384l28 28z" />
    <glyph glyph-name="sixin" unicode="&#xe63c;" 
d="M511 277q3 -2 7 0l162 136q4 3 9 3v2q0 5 -3.5 8.5t-8.5 3.5h-321q-7 0 -14 -4.5t-7 -7.5v-2q5 0 8 -3zM335 385v-166l103 78zM680 191l-112 88l-34 -24q-9 -7 -19.5 -7t-19.5 7l-34 24l-118 -88q-3 -3 -8 -3v0v-7q0 -5 3.5 -8.5t8.5 -3.5h321q7 0 14 4.5t7 7.5v7v0
q-5 0 -9 3zM689 219v166l-98 -88zM512 666q-99 0 -183.5 -49t-133.5 -133.5t-49 -183.5t49 -183.5t133.5 -133.5t183.5 -49t183.5 49t133.5 133.5t49 183.5t-49 183.5t-133.5 133.5t-183.5 49zM714 185q0 -17 -16 -28t-33 -11h-314q-17 0 -28.5 11.5t-11.5 27.5v229
q0 17 16 28.5t33 11.5h315q16 0 27.5 -12t11.5 -28v-229z" />
    <glyph glyph-name="tianjia1" unicode="&#xe619;" 
d="M873 661q-98 98 -229.5 133t-263 0t-229.5 -133q-74 -73 -112 -168.5t-38 -192.5t38 -192.5t111.5 -169t169 -111.5t192.5 -38t192.5 38t168.5 112q98 98 133 229.5t0 263t-133 229.5zM185.5 -26.5q-88.5 88.5 -120 207.5t0 238t120 207.5t207.5 120t238 0t207.5 -120
t120 -207.5t0 -238t-120 -207.5t-207.5 -120t-238 0t-207.5 120zM548 82v182h182q16 0 26.5 10.5t10.5 25.5v0q0 16 -10.5 26.5t-26.5 10.5h-182v182q0 15 -10.5 26t-25.5 11v0q-15 0 -26 -11t-11 -26v-182h-181q-16 0 -26.5 -10.5t-10.5 -26.5v0q0 -15 10.5 -25.5
t26.5 -10.5h181v-182q0 -15 11 -26t26 -11v0q15 0 25.5 11t10.5 26z" />
    <glyph glyph-name="liebiao3" unicode="&#xe61c;" 
d="M877 547q0 -4 -4 -7.5t-9 -3.5h-704q-5 0 -9 3.5t-4 7.5v39q0 5 4 8t9 3h704q5 0 9 -3t4 -8v-39zM877 323q0 -5 -4 -8.5t-9 -3.5h-704q-5 0 -9 3.5t-4 8.5v39q0 4 4 7.5t9 3.5h704q5 0 9 -3.5t4 -7.5v-39zM877 101q0 -5 -4 -8t-9 -3h-704q-5 0 -9 3t-4 8v39q0 5 4 8t9 3
h704q5 0 9 -3t4 -8v-39z" />
    <glyph glyph-name="yaoyiyao" unicode="&#xe62d;" 
d="M581 -15l-280 75q-14 4 -21.5 16.5t-3.5 26.5l140 524q4 14 17 21t27 4l280 -75q14 -4 21 -16.5t3 -26.5l-140 -524q-4 -14 -16.5 -21.5t-26.5 -3.5zM451 621q-3 1 -4 -2l-140 -524q-1 -4 2 -5l280 -75q4 0 5 3l140 524q1 3 -3 4zM597 101l-252 67q-7 2 -5 9l102 381
q2 8 9 6l252 -68q7 -2 5 -9l-102 -381q-2 -7 -9 -5zM356 181l237 -64l98 367l-236 63zM602 552q-3 -12 -15 -9l-49 13q-12 3 -9 15v0q3 12 15 9l49 -13q12 -3 9 -15v0zM639 542q-3 -12 -15 -9t-8.5 15t15 9t8.5 -15zM452.5 66q-11.5 3 -17.5 13.5t-3 22t13.5 18t22.5 3
t18 -14t2.5 -22t-14 -17.5t-22 -3zM464.5 110q-6.5 2 -12.5 -1.5t-8 -10t1.5 -12.5t10.5 -8t12.5 1.5t7.5 10t-1.5 12.5t-10 8zM919 430q-2 0 -5 1q-7 2 -11.5 9t-2.5 15q20 81 -22 154t-123 97q-8 2 -12 9t-1.5 15t9.5 12t15 1q96 -28 146 -114q50 -87 26 -184
q-3 -15 -19 -15zM839 450h-4q-8 2 -12.5 9t-2.5 15q12 50 -13.5 94t-74.5 59q-8 2 -12 9t-1.5 15t9.5 12t15 1q64 -18 98 -76q33 -58 17 -123q-3 -15 -19 -15zM282 -112q-2 0 -5 1q-96 28 -146 114q-50 87 -27 184q2 8 9 12t15 2.5t12.5 -8.5t2.5 -15q-20 -82 22 -155
t123 -96q8 -3 12 -10t1 -15q-4 -14 -19 -14zM306 -33q-3 0 -6 1q-65 19 -98 77q-33 57 -18 122q2 8 9 12.5t15 2.5t12.5 -9t2.5 -15q-12 -50 13 -94q26 -44 75 -58q8 -3 12 -10t1 -15q-4 -14 -18 -14z" />
    <glyph glyph-name="faxian1" unicode="&#xe618;" 
d="M660 698q49 0 119.5 -13t91.5 -25q12 -26 30 -105.5t17 -109.5q-41 -52 -396 -466q-41 -48 -62 -72q-7 -8 -13 -8q-5 0 -8 2q-8 7 -151 147q-158 153 -173 167q-10 9 -10 18q1 13 9 19q21 16 533 444l2 2h11v0zM719.5 398q43.5 0 74.5 31t31 74.5t-31 74t-74.5 30.5
t-74 -30.5t-30.5 -74t30.5 -74.5t74 -31zM660 743q-27 0 -33 -4q-525 -439 -540 -451q-13 -10 -21 -26.5t-4.5 -39.5t23.5 -41q14 -12 164.5 -158.5t159.5 -155.5q16 -13 38 -13q27 0 47 23q1 1 123 143.5t229 269t114 136.5q11 16 -12.5 126t-39.5 136q-13 20 -100.5 37.5
t-147.5 17.5v0v0zM720 443q-25 0 -42.5 17.5t-17.5 42.5t17.5 42.5t42.5 17.5t42.5 -17.5t17.5 -42.5t-17.5 -42.5t-42.5 -17.5v0z" />
    <glyph glyph-name="sixin1" unicode="&#xe61d;" 
d="M333.5 355q-23.5 0 -40 -16.5t-16.5 -40t16.5 -40t40 -16.5t40 16.5t16.5 40t-16.5 40t-40 16.5zM520.5 355q-23.5 0 -40 -16.5t-16.5 -40t16.5 -40t40 -16.5t40 16.5t16.5 40t-16.5 40t-40 16.5zM707.5 355q-23.5 0 -39.5 -16.5t-16 -40t16 -40t39.5 -16.5t40 16.5
t16.5 40t-16.5 40t-40 16.5zM510.5 741q-101.5 0 -194 -35t-159.5 -94t-107 -140.5t-40 -171.5q0 -137 89 -250l-33 -144q-6 -18 9.5 -32t36.5 -8l167 43q109 -50 231 -50q102 0 194.5 35t159.5 94t106.5 140.5t39.5 171.5t-39.5 171.5t-106.5 140.5t-159.5 94t-194 35z
M512 -82q-113 0 -212 49q-14 7 -29 3l-134 -35l36 107q5 16 -6 29q-86 102 -86 228q0 104 57.5 191.5t157 138.5t216.5 51t216 -51t157 -138.5t58 -191t-58 -191.5t-157 -139t-216 -51z" />
    <glyph glyph-name="biaoqing1" unicode="&#xe61f;" 
d="M516.5 -80q-76.5 0 -146.5 30q-67 29 -119 81t-81 119q-29 70 -29 146.5t29 145.5q29 68 81 120t119 80q70 30 146.5 30t146.5 -30q67 -28 119 -80t81 -120q29 -69 29 -145.5t-29 -146.5q-29 -67 -81 -119t-119 -81q-70 -30 -146.5 -30zM516.5 656q-97.5 0 -180.5 -48.5
t-131 -131t-48 -180t48 -180.5t131 -131t180.5 -48t180 48t131 131t48.5 180.5t-48.5 180t-131 131t-180 48.5zM429 408q0 20 -14.5 34.5t-34.5 14.5t-34.5 -14.5t-14.5 -34.5t14.5 -34.5t34.5 -14.5t34.5 14.5t14.5 34.5zM714 408q0 20 -14 34.5t-34.5 14.5t-34.5 -14.5
t-14 -34.5t14 -34.5t34.5 -14.5t34.5 14.5t14 34.5zM523 78h-7q-69 3 -133 53q-32 26 -51 51q-4 6 2.5 11t11.5 -1v0q17 -24 48 -48q60 -47 123 -50q95 -3 184 98q5 6 11 0.5t1 -11.5q-91 -103 -190 -103z" />
    <glyph glyph-name="pinglun1" unicode="&#xe628;" horiz-adv-x="1178" 
d="M1178 896v-788h-757l-253 -236v236h-168v788h1178v0zM925 423q35 0 59.5 23t24.5 56t-24.5 56t-59.5 23t-59.5 -23t-24.5 -56t24.5 -56t59.5 -23v0zM589 423q35 0 59.5 23t24.5 56t-24.5 56t-59.5 23t-59.5 -23t-24.5 -56t24.5 -56t59.5 -23v0zM252 423q35 0 59.5 23
t24.5 56t-24.5 56t-59.5 23t-59.5 -23t-24.5 -56t24.5 -56t59.5 -23v0z" />
    <glyph glyph-name="liebiao-80" unicode="&#xe620;" 
d="M840 602h-246q-11 0 -19 8t-8 19.5t8 19.5t19 8h246q12 0 20 -8t8 -19.5t-8 -19.5t-20 -8v0zM840 465h-246q-11 0 -19 8t-8 19.5t8 19.5t19 8h246q12 0 20 -8t8 -19.5t-8 -19.5t-20 -8v0zM840 246h-246q-11 0 -19 8t-8 19.5t8 19.5t19 8h246q12 0 20 -8t8 -19.5t-8 -19.5
t-20 -8v0zM840 110h-246q-11 0 -19 8t-8 19t8 19t19 8h246q12 0 20 -8t8 -19t-8 -19t-20 -8v0zM403 411h-165q-34 0 -58 24t-24 58v164q0 34 24 58t58 24h165q33 0 57.5 -24t24.5 -58v-164q0 -34 -24.5 -58t-57.5 -24v0zM238 684q-11 0 -19 -8t-8 -19v-164q0 -12 8 -20
t19 -8h165q11 0 19 8t8 20v164q0 11 -8 19t-19 8h-165zM403 27h-165q-34 0 -58 24.5t-24 58.5v164q0 34 24 58t58 24h165q33 0 57.5 -24t24.5 -58v-164q0 -34 -24.5 -58.5t-57.5 -24.5v0zM238 301q-11 0 -19 -8t-8 -19v-164q0 -12 8 -20t19 -8h165q11 0 19 8t8 20v164
q0 11 -8 19t-19 8h-165zM238 301z" />
    <glyph glyph-name="dianzan-copy" unicode="&#xe665;" 
d="M680 598q59 0 101 -40.5t42 -97.5q0 -58 -24.5 -115.5t-59 -100t-81.5 -83t-80 -63t-66 -41.5q-33 19 -66 41.5t-79.5 63t-81 83t-59.5 100t-25 115.5q0 57 42 97.5t102 40.5q68 0 111 -52q22 -25 56.5 -25t55.5 25q43 52 112 52zM680 666q-50 0 -93.5 -20.5t-74.5 -55.5
q-30 35 -73.5 55.5t-93.5 20.5q-89 0 -152.5 -60.5t-63.5 -145.5q0 -57 19 -112.5t48.5 -100t69 -86.5t76 -71t74.5 -55t60 -38.5t36 -19.5q15 7 37 19.5t60 38.5t74.5 55t76 71t68.5 86.5t48 100t19 112.5q0 85 -63 145.5t-152 60.5z" />
    <glyph glyph-name="pinlun" unicode="&#xe64c;" horiz-adv-x="1118" 
d="M838 896h-559q-115 0 -197 -82t-82 -197v-186q0 -116 82 -198t197 -82h47v-279l319 279h193q115 0 197 82t82 198v186q0 115 -82 197t-197 82z" />
    <glyph glyph-name="luyin" unicode="&#xe921;" 
d="M512 299q53 0 90.5 37.5t37.5 90.5v256q0 53 -37.5 90.5t-90.5 37.5t-90.5 -37.5t-37.5 -90.5v-256q0 -53 37.5 -90.5t90.5 -37.5zM738 427q0 -94 -67.5 -156t-158.5 -62t-158.5 62t-67.5 156h-73q0 -108 75 -189.5t181 -97.5v-140h86v140q106 16 181 97.5t75 189.5h-73z
" />
    <glyph glyph-name="iconfontweixin2" unicode="&#xe651;" 
d="M499 551q20 0 32 12t12 32t-12 32t-32 12q-21 0 -37 -12.5t-16 -31.5t16 -31.5t37 -12.5zM253 639q-21 0 -37 -12.5t-16 -31.5t16 -31.5t37 -12.5q20 0 32 12t12 32t-12 32t-32 12zM1024 270q0 104 -84 182t-203 87v6q-24 111 -130 185t-240 74q-99 0 -184 -42
t-134 -114.5t-49 -158.5q0 -142 138 -243l-32 -94q-3 -10 5 -17q4 -4 10 -4q4 0 8 2l117 59l15 -3q68 -14 106 -14q17 0 34 1q7 1 11 6q33 -81 114.5 -132t183.5 -51q37 0 103 17l91 -50q3 -2 7 -2q6 0 11 3q8 7 5 18l-23 77q120 95 120 208zM399 208q-16 -1 -32 -1
q-35 0 -100 13l-20 4q-5 1 -10 -1l-88 -45l23 69q3 12 -6 19q-134 93 -134 223q0 77 45 142t122 103t168 38q123 0 219.5 -66t118.5 -166q-129 -1 -219.5 -80t-90.5 -190q0 -31 9 -63q-3 1 -5 1zM875 80q-8 -6 -5 -17l15 -50l-62 34q-4 2 -8 2q-2 0 -4 -1q-67 -17 -101 -17
q-117 0 -200 70t-83 169t83 169t200 70q115 0 198.5 -71t83.5 -168q0 -49 -30 -98t-87 -92zM613 384q-13 0 -24 -11t-11 -24t11 -24t24 -11q19 0 31.5 10.5t12.5 24.5t-12.5 24.5t-31.5 10.5zM806 384q-13 0 -24 -11t-11 -24t11 -24t24 -11q19 0 31.5 10.5t12.5 24.5
t-12.5 24.5t-31.5 10.5z" />
    <glyph glyph-name="iconfonticozhuce" unicode="&#xe69f;" 
d="M504.5 343q102.5 0 175 71.5t72.5 173t-72.5 173t-175 71.5t-175 -71.5t-72.5 -173t72.5 -173t175 -71.5zM511.5 320q-71.5 0 -148.5 -27.5t-140 -73t-104 -110t-41 -132.5v-42h866v42q0 68 -40.5 132.5t-104 110t-140 73t-148 27.5z" />
    <glyph glyph-name="gift" unicode="&#xe621;" 
d="M881 573h-101l20 20q41 41 41 99t-41 99t-99.5 41t-99.5 -41l-85 -85l-84 85q-41 41 -99 41t-98.5 -41t-40.5 -99t41 -98l20 -21h-112q-33 0 -56 -23t-23 -56v-140q0 -33 23 -56.5t56 -23.5v-259q0 -33 23.5 -56t56.5 -23h578q33 0 56.5 23t23.5 56v259q33 0 56 23.5
t23 56.5v140q0 33 -23 56t-56 23zM277 748.5q23 23.5 56 23.5t57 -23l84 -85l-1 -1l43 -42l128 128q23 23 56.5 23t57 -23.5t23.5 -56.5t-24 -57l-62 -62h-355l-63 63q-23 23 -23 56t23 56.5zM482 -5h-219q-18 0 -39 12.5t-21 27.5v299h-40q-16 0 -27.5 11.5t-11.5 28.5v100
q0 16 11.5 27.5t27.5 11.5h319v-518v0zM900 374q0 -17 -11.5 -28.5t-27.5 -11.5h-40v-299q0 -15 -21 -27.5t-39 -12.5h-199v518h299q16 0 27.5 -11.5t11.5 -27.5v-100z" />
    <glyph glyph-name="iconfontfaxian" unicode="&#xe622;" 
d="M587 836q52 49 110 56q31 4 58 -5q27 -10 46 -31q35 -38 32 -97q-1 -32 -16 -68q42 17 79 17q48 0 82 -26q35 -27 41 -72q6 -35 -9 -73t-49 -73q-32 -34 -86 -46q-51 -11 -120 -5q-10 1 -28.5 3.5t-26.5 3.5q-68 3 -126 -5q-32 -5 -44 -11q6 11 11 42q7 56 3 124
q-1 8 -4 27t-4 30q-6 53 0 98q5 37 15 61q13 30 36 50zM680 843q-28 -12 -49 -29q-23 -20 -37 -48q-9 -17 -15 -42q-9 -46 -1 -105q5 -39 5 -45q3 -47 1 -75q-2 -29 -8 -50q9 5 29 9q27 4 109 0q7 0 34 -3q60 -9 105 2q45 10 75 39q18 16 32 39q13 22 18 42q6 23 0.5 41
t-22.5 29q-16 13 -43 17q-34 6 -76 -2q-32 -6 -65 -19q-5 -2 -6 -3q14 34 20 69q6 38 2 69q-4 33 -20 52q-14 18 -36 21q-23 4 -52 -8zM154 860q64 24 131 10q91 -17 146 -93q45 -61 46 -137q1 -59 -26 -111q-22 -44 -60 -76q-44 -36 -98 -49q-70 -16 -137 9
q-79 29 -123 102q-31 53 -33 116v11q2 73 43 132q43 60 111 86zM220 839q-72 -6 -123 -57q-45 -43 -58 -104q-12 -58 9 -114q19 -49 59 -83q42 -36 97 -45q66 -11 125 18q55 28 86 82q34 58 26 125q-6 49 -35 90q-31 46 -81 70q-50 23 -105 18zM744 349q54 5 104 -15
q70 -26 112 -87q34 -49 40 -108q8 -64 -18 -123q-21 -48 -60 -83q-44 -39 -100 -53q-64 -16 -127 3q-61 18 -105 64q-55 58 -63 137q-8 65 18 124q24 55 72 92q56 44 127 49zM745 314q-72 -6 -123 -57q-39 -37 -54 -89q-16 -56 0 -112q11 -41 39 -75q39 -47 97 -64
q61 -19 122 1q53 17 90 58q38 43 48 100q11 63 -16 121q-31 67 -98 98q-50 24 -105 19zM160 336q62 21 126 8q54 -11 97 -44q37 -28 61 -68q29 -50 33 -108q3 -61 -23 -116q-37 -77 -114 -114q-47 -22 -99 -22h-5q-50 0 -94 21q-42 18 -74.5 51.5t-49.5 76.5q-18 41 -18 87
v5q0 45 17 86q19 47 55 83q38 37 88 54zM220 313q-50 -4 -93 -32q-50 -33 -75 -88q-25 -57 -14 -118q9 -52 43 -93.5t84 -60.5q50 -20 103 -12q45 7 82 32q39 25 62 64q26 42 30 92q4 60 -26 113q-28 50 -78 78q-55 31 -118 25z" />
    <glyph glyph-name="sixin2" unicode="&#xe62f;" 
d="M218 -41q-4 0 -7 1q-13 5 -13 18v165h-48q-36 0 -61 25t-25 61v485q0 36 25 61t61 25h724q36 0 61 -25t25 -61v-485q0 -36 -25 -61t-61 -25h-485l-157 -178q-6 -6 -14 -6zM150 762q-20 0 -34 -14t-14 -34v-485q0 -20 14 -33.5t34 -13.5h68q8 0 13.5 -6t5.5 -14v-132
l128 145q6 7 15 7h494q20 0 34 13.5t14 33.5v485q0 20 -14 34t-34 14h-724z" />
    <glyph glyph-name="xiangce" unicode="&#xe64d;" 
d="M273 441q38 0 65.5 27t27.5 65t-27.5 65.5t-65.5 27.5t-65 -27.5t-27 -65.5t27 -65t65 -27zM886 745h-748q-32 0 -54.5 -22.5t-22.5 -54.5v-568q0 -32 22.5 -54.5t54.5 -22.5h748q32 0 54.5 22.5t22.5 54.5v568q0 32 -22.5 54.5t-54.5 22.5zM900 98q0 -6 -4 -9.5t-9 -3.5
h-750q-5 0 -9 3.5t-4 9.5v571q0 6 4 9.5t9 3.5h750q5 0 9 -3.5t4 -9.5v-571zM407 315l-74 74l-155 -153v-90h667v206l-197 200z" />
    <glyph glyph-name="anzhuo34" unicode="&#xe691;" 
d="M819 768h-614q-32 0 -54.5 -22.5t-22.5 -54.5v-691l154 154h537q32 0 54.5 22t22.5 54v461q0 32 -22.5 54.5t-54.5 22.5zM397 422h-77v77h77v-77zM550 422h-76v77h76v-77zM704 422h-77v77h77v-77z" />
    <glyph glyph-name="37" unicode="&#xe624;" 
d="M883 595h-77q37 41 39 89q1 40 -22 69q-25 30 -70 37q-86 12 -191 -98q-26 -28 -52 -62q-25 34 -52 62q-104 110 -191 98q-44 -7 -69 -37q-24 -29 -22 -69q2 -48 39 -89h-86q-30 0 -51 -21t-21 -51v-75q0 -29 19 -49.5t47 -22.5v-336q0 -29 21 -50t51 -21h622q30 0 51 21
t21 50v336q27 2 46.5 22.5t19.5 49.5v75q0 30 -21 51t-51 21zM883 523v-75v-1h-341v76h341v0zM743 719q31 -5 30 -32q-1 -31 -36 -59.5t-96 -31.5q-3 0 -7 -1h-61q21 26 42 48q78 83 128 76zM380 596q-61 3 -96 31.5t-36 59.5q-2 27 29 32q50 7 129 -76q20 -22 41 -48h-60
q-4 1 -7 1zM129 523v0h341v-76l-341 1v0v75zM195 40v332h275v-332h-275v0zM817 40v0h-275v332h275v-332z" />
    <glyph glyph-name="biaoqing2" unicode="&#xe626;" 
d="M512 -64q-122 0 -225 60t-163 163t-60 225t60 225t163 163t225 60t225 -60t163 -163t60 -225t-60 -225t-163 -163t-225 -60zM512 816q-179 0 -305.5 -126.5t-126.5 -305.5t126.5 -305.5t305.5 -126.5t305.5 126.5t126.5 305.5t-126.5 305.5t-305.5 126.5zM512 96
q-110 0 -191.5 73.5t-94.5 182.5h572q-13 -109 -94.5 -182.5t-191.5 -73.5zM680 464q-23 0 -39.5 21t-16.5 51t16.5 51t39.5 21t39.5 -21t16.5 -51t-16.5 -51t-39.5 -21zM344 464q-23 0 -39.5 21t-16.5 51t16.5 51t39.5 21t39.5 -21t16.5 -51t-16.5 -51t-39.5 -21z" />
    <glyph glyph-name="lg-zh" unicode="&#xe627;" 
d="M512 732q-77 0 -132 -57.5t-55 -139t55 -139t132 -57.5t132 57.5t55 139t-55 139t-132 57.5zM512 301q-93 0 -159 69t-66 165.5t66 165.5t159 69t159 -69t66 -165.5t-66 -165.5t-159 -69zM512 241q-82 0 -159.5 -24t-132 -62.5t-87.5 -87.5t-33 -97q0 -34 46 -49t151 -15
h215h215q106 1 151.5 16.5t45.5 49.5q0 48 -33 97t-87.5 87t-132 61.5t-159.5 23.5zM718 -130h-206h-206q-127 0 -185.5 23.5t-58.5 79.5q0 80 60 151t164 114t226 43t226 -43t164 -114t60 -151q0 -56 -58.5 -79.5t-185.5 -23.5z" />
    <glyph glyph-name="wenhao" unicode="&#xe62a;" horiz-adv-x="1449" 
d="M724 33zM670 33q0 22 15.5 38t38 16t38 -16t15.5 -38t-15.5 -38t-38 -16t-38 16t-15.5 38zM723.5 786q-111.5 0 -190 -79t-78.5 -190v0q0 -22 15.5 -38t38 -16t38 16t15.5 38q0 67 47.5 114t114 47t114 -47t47.5 -114t-47.5 -114t-113.5 -47q-23 0 -38.5 -16t-15.5 -38v0
v0v-107v-1q0 -22 15.5 -37.5t38 -15.5t38 15.5t15.5 37.5v1v59q93 18 154 92t61 171q0 111 -78.5 190t-190 79z" />
    <glyph glyph-name="sixin3" unicode="&#xe978;" 
d="M909 718h-794q-20 0 -34.5 -14.5t-14.5 -35.5v-568q0 -21 14.5 -35.5t34.5 -14.5h794q20 0 34.5 14.5t14.5 35.5v568q0 21 -14.5 35.5t-34.5 14.5zM902 662v-50l-371 -264q-8 -6 -19 -6t-19 6l-371 264v50h780zM122 106v438l339 -242q22 -15 51 -15t51 15l339 242v-438
h-780z" />
    <glyph glyph-name="zhuanfa" unicode="&#xe6b0;" 
d="M922 596l-300 140q-15 7 -29.5 -1.5t-14.5 -25.5l-2 -63q-36 -7 -77.5 -21t-93 -38t-103.5 -63.5t-90 -87.5q-114 -145 -85 -346q2 -11 9.5 -18.5t18.5 -8.5h2q23 0 30 22q26 84 64.5 150t78 105t86 65.5t84.5 37t77 14.5l2 -55q0 -17 15 -25.5t30 -0.5l300 165
q17 9 16 28t-18 27z" />
    <glyph glyph-name="zhanghu" unicode="&#xe629;" 
d="M766 246q-6 6 -14.5 6t-14 -6t-5.5 -14.5t6 -14.5q93 -96 93 -231q0 -9 6 -15t14 -6t14 6t6 15q0 73 -27 140.5t-78 119.5v0zM512 803q-99 0 -169 -72t-70 -174q0 -71 36.5 -130t97.5 -90q-85 -26 -149 -91q-51 -52 -78 -119.5t-27 -140.5q0 -9 6 -15t14 -6t14 6t6 15
q0 135 93 231q90 92 217 95h9q99 0 169 72t70 173.5t-70 173.5t-169 72v0zM515 353h-3h-9q-80 4 -135 63.5t-55 140.5q0 85 58.5 145t140.5 60t140.5 -60t58.5 -145q0 -83 -57 -142.5t-139 -61.5v0zM515 353z" />
    <glyph glyph-name="yaoyiyao1" unicode="&#xe6aa;" 
d="M738 667l-6 -2l-6 -2l-6 -2l-5 -2l-6 -2l-6 -2l-4 -2l-2 -2l-6 -2l-2 -2l-2 -2l-4 -4l-2 -3l-2 -4l-2 -2l-2 -4l-2 -6l-2 -4v-20l2 -7l2 -6l2 -2l2 -4h4v-4l4 -4l2 -2l2 -2l6 -2l2 -2l6 -2h25l6 2l4 2l6 2l6 2l4 2l6 2l6 2l7 2l4 2l6 2l6 2l4 2l6 2l6 2l4 2l12 5l4 2l7 2
l2 2l4 2l4 4l2 2l2 2l2 2l2 4l2 2l4 12v21l-2 8l-2 4l-2 4l-4 4l-2 4l-2 2l-2 2l-6 2l-2 2l-5 2l-4 3l-10 2h-2l-16 -2l-6 -3l-4 -2l-6 -2l-7 -2l-4 -2l-6 -2l-6 -2l-4 -2l-6 -2l-6 -2zM895 424l-6 -2l-6 -2l-4 -2l-7 -2l-6 -2l-4 -2l-6 -2l-6 -2l-4 -3l-6 -2l-6 -2l-4 -2
l-13 -4l-6 -2l-4 -2l-6 -2l-6 -2l-4 -2l-2 -2l-4 -4l-2 -2l-4 -4l-2 -2l-2 -4l-2 -2l-2 -7l-3 -8v-16l3 -6l2 -6l2 -4l2 -2l2 -2l8 -9l2 -2l6 -2l2 -2l6 -2l10 -2h11l6 2l4 2l6 2l6 2l4 2l6 2l6 2l4 2l6 3l6 2l5 2l6 2l6 2l4 2l12 4l6 2l4 2l6 2l6 2l5 4l4 2l2 2l2 4l4 4
l2 4l2 4l2 5v26l-2 4l-2 6l-2 4l-8 9l-4 4l-4 2l-5 2l-4 2l-8 2h-18zM848 557l-6 -2l-6 -2l-4 -2l-6 -2l-7 -2l-4 -3l-6 -2l-6 -2l-4 -2l-6 -2l-6 -2l-6 -2l-4 -2l-6 -2l-7 -2l-4 -2l-6 -2l-6 -2l-4 -2l-2 -2l-4 -2l-2 -2l-4 -4l-4 -4l-2 -4l-2 -3l-2 -4l-2 -8v-20l2 -6
l2 -4l2 -2l2 -5l2 -2l2 -4l2 -2l2 -2l4 -2l2 -2l4 -2l4 -2l6 -2h21l6 2l4 2l6 2l6 2l4 2l6 2l6 2l4 2l7 2l6 2l6 3l4 2l6 2l6 2l4 2l6 2l6 2l4 2l7 2l4 2l4 2v4h4l2 2l2 2l2 4l2 2l2 4l4 8v25l-2 6l-2 4l-2 4l-2 4l-2 2l-2 2l-4 5l-4 2l-2 2l-6 2l-3 2l-10 2h-10zM1005 258
l-2 6l-2 5l-2 4l-2 4l-2 2l-4 4l-4 2l-2 2l-5 2l-4 2l-8 2h-22l-4 -2l-6 -2l-6 -2l-5 -2l-6 -2l-6 -2l-4 -2l-6 -2l-6 -2l-6 -2l-4 -2l-6 -2l-6 -3l-5 -2l-6 -2l-6 -2l-4 -2l-6 -2l-6 -2l-2 -2l-2 -2l-4 -2l-2 -2l-2 -2l-2 -4l-4 -4l-2 -6l-2 -4l-2 -9v-16l2 -4l2 -6l2 -4
l4 -4l2 -4l2 -2l4 -2l2 -2l2 -3l2 -2l6 -2l6 -2h21l6 2l6 2l6 2l4 3l6 2l6 2l4 2l12 4l5 2l6 2l6 2l4 2l6 2l6 2l6 2l4 2l6 2l4 2l7 2l2 2l2 2l2 2l4 4l2 2l2 5l2 2l2 4l2 6l2 8v6zM181 673l2 -6l2 -6l3 -4l2 -6l2 -6l2 -4l2 -7l2 -6l2 -4l2 -6l2 -6l2 -6l2 -4l2 -6l2 -7
l2 -4l2 -6l2 -6l2 -4l2 -6l2 -4h2l4 2l6 2l7 2l4 2l6 2l12 4l2 2l2 8l2 9l2 2l2 2l2 2l2 2l4 2l7 2l4 2l6 2l6 2l4 2l6 2l6 2l4 2l6 2l6 2l4 2l7 2l12 4l4 2l6 2l6 2l4 3l6 2l6 2l4 2l7 2l6 2l4 2l6 2l12 4l4 2l12 4l5 2l12 4l4 2l6 2l6 2l4 2l6 2l6 2l4 2l7 2l6 3l6 2l4 2
l6 2l6 2l4 2l6 2l6 2l4 2l7 2l6 2l4 2l12 4l4 2l6 2l6 2l6 2l4 2l7 2l6 2l4 2l6 2l6 2l4 3l6 2l6 2h17l2 -2l4 -2l4 -5l2 -4l2 -4l2 -6l2 -6l2 -4l4 -12l2 -4l2 -6l2 -3h6l6 3l4 2l7 2l6 2l4 2l6 2l4 2v4l-2 6l-2 6l-2 4l-4 12l-2 5l-4 12l-2 4l-2 6l-2 6l-2 4l-4 12l-3 7
l-2 4l-2 6l-2 6l-2 4l-4 12l-2 4l-2 7l-2 6l-2 4l-4 12l-2 4l-2 6l-2 6l-2 4l-2 3l-2 4l-2 2l-2 2l-4 2l-4 4l-2 2l-7 2l-6 2l-10 2h-2l-12 -2l-6 -2l-4 -2l-7 -2l-6 -2l-4 -2l-6 -2l-6 -2l-6 -2l-4 -2l-12 -5l-4 -2l-6 -2l-7 -2l-4 -2l-6 -2l-6 -2l-4 -2l-6 -2l-6 -2l-4 -2
l-6 -2l-7 -2l-6 -2l-4 -2l-6 -2l-6 -2l-4 -2l-12 -4l-4 -2l-6 -2l-7 -2l-4 -3l-6 -2l-6 -2l-4 -2l-6 -2l-6 -2l-6 -2l-4 -2l-7 -2l-6 -2l-4 -2l-6 -2l-6 -2l-4 -2l-12 -4l-4 -2l-6 -2l-7 -2l-4 -2l-6 -2l-6 -2l-6 -2l-4 -3l-6 -2l-6 -2l-4 -2l-6 -2l-7 -2l-4 -2l-6 -2l-6 -2
l-4 -2l-6 -2l-6 -2l-6 -2l-4 -2l-6 -2l-7 -2l-4 -2l-6 -2l-6 -2l-4 -2l-6 -2l-2 -2l-4 -3l-2 -2l-2 -2l-4 -2l-2 -2l-2 -4l-3 -2l-2 -4l-2 -2l-2 -4v-4l-2 -4v-12l2 -11zM375 720l2 6l2 4l6 2l4 3l6 2l7 2l4 2l6 2l6 2l4 2l6 2l6 2l6 2l4 2l13 4l4 2l6 2l6 2l4 2l6 2l6 2
l4 2h10l7 -2l2 -4l2 -2v-16l-2 -2l-2 -2l-5 -2l-4 -2l-6 -2l-6 -2l-4 -2l-6 -3l-6 -2l-4 -2l-6 -2l-6 -2l-7 -2l-4 -2l-6 -2l-6 -2l-4 -2l-6 -2l-6 -2l-4 -2l-12 -4l-5 -2h-10l-6 2l-2 2l-2 2l-2 4v8v0zM970 99l-2 4l-4 12l-2 4l-2 6l-2 7l-2 4l-4 12l-2 4l-2 6l-2 2h-6
l-6 -2l-4 -2l-7 -2l-12 -4l-4 -2l-6 -2l-6 -2l-4 -2l-6 -2l-10 -2q-56 0 -76 41l-2 6l-2 4l-2 4h-4l-4 -2l-6 -2l-6 -2l-6 -2l-5 -2l-12 -4l-4 -2l-6 -2l-6 -3l-4 -2l-6 -2l-6 -2l-4 -2l-7 -2l-6 -2l-4 -2l-6 -2l-6 -2l-6 -2l-4 -2l-6 -2l-6 -2l-4 -2l-7 -2l-6 -2l-4 -2
l-6 -2l-6 -2l-4 -2l-12 -4l-4 -2l-6 -3l-6 -2l-7 -2l-4 -2l-6 -2l-6 -2l-4 -2l-6 -2l-6 -2l-4 -2l-6 -2l-6 -2l-5 -2l-6 -2l-6 -2l-4 -2l-6 -2l-6 -2l-7 -2l-4 -2l-6 -2l-6 -3l-4 -2l-6 -2h-10l-6 2l-4 2l-2 3l-5 2l-2 6l-2 6l-2 4l-2 6l-2 6l-2 4l-2 6l-2 6l-2 7l-2 4l-2 6
l-2 6l-2 4l-4 12l-2 4l-2 7l-2 6l-2 4l-2 6l-2 6l-2 4l-2 6l-2 6l-3 4l-2 6l-2 7l-2 6l-2 4l-2 6l-2 6l-2 4l-2 6l-2 6l-2 5l-2 6l-2 6l-2 4l-4 12l-2 4l-2 6l-2 6l-2 5l-2 6l-2 6l-2 4l-2 6l-5 12l-2 4h-6l-6 -2l-4 -2l-12 -4l-4 -2l-6 -2l-2 -2v-4l2 -6l2 -4l2 -6l2 -7
l2 -4l2 -6l2 -6l2 -4l2 -6l2 -6l2 -4l4 -13l2 -6l2 -4l2 -6l2 -6l2 -4l2 -6l2 -6l3 -4l4 -13l2 -4l2 -6l2 -6l2 -6l2 -4l2 -6l2 -6l2 -7l2 -6l2 -4v-4l2 -2l2 -8l2 -6l2 -4l2 -6l4 -13l2 -4l2 -6l2 -4l2 -8l2 -4l3 -6l2 -6l2 -5l2 -6l2 -6l2 -4l4 -12l2 -4l2 -6l2 -6l2 -5
l2 -6l2 -6l2 -6l2 -4l4 -12l2 -4l2 -7l2 -6l2 -4l2 -6l2 -6l2 -4l3 -6l2 -6l2 -4l2 -7l2 -6l2 -4l4 -12l2 -6l2 -4l2 -6l2 -2l2 -4h4v-5l2 -2l2 -2l2 -2l8 -4l4 -2l6 -2h19l6 2l4 2l12 4l4 2l6 2l7 2l4 2l6 2l6 2l4 2l6 3l6 2l4 2l6 2l6 2l6 2l5 2l12 4l4 2l6 2l6 2l4 2l6 2
l6 2l4 2l7 2l6 2l4 2l6 2l6 2l6 2l4 2l6 2l6 3l4 2l7 2l6 2l4 2l6 2l6 2l4 2l12 4l4 2l6 2l7 2l6 2l4 2l6 2l6 2l4 2l6 2l6 2l4 2l6 2l6 2l5 2l12 5l4 2l6 2l6 2l6 2l4 2l6 2l6 2l5 2l6 2l6 2l4 2l6 2l6 2l4 2l6 2l6 2l9 4l4 2l2 2l2 2l4 5l2 4l2 2l2 2l2 6l2 8v20l-2 7z
M702 -3q-23 0 -39.5 16.5t-16.5 39.5q0 15 8 28v2l1 1l2 2l1 3l4 4h1q16 16 39 16t39.5 -16.5t16.5 -39.5t-16.5 -39.5t-39.5 -16.5zM424 -44l-2 6l-2 4l-2 6l-2 6l-2 4l-4 13l-2 4l-2 6l-2 6l-2 4l-3 6l-2 6l-2 4l-2 7l-4 12l-2 4l-2 6l-2 6l-2 4l-2 6l-2 6l-2 5l-2 6l-2 6
l-2 4l-2 6l-2 6l-2 4l-4 13l-2 4l-2 6l-2 6l-2 4l-2 6l-2 6l-3 6l-2 4l-4 13l-2 4l-2 6l-2 6l-2 4l-2 6l-2 6l-2 5l-2 6l-2 6l-2 4l-2 6l-2 6l-2 6l-2 4l-2 6l-2 7l-2 4l-2 6l-2 6l-2 4l-2 6l-3 6l-2 4l-2 6l-2 7l-2 6l-2 4l-2 6l-2 6l-2 4v6l2 6l2 2l2 5l2 2l4 2l4 2l5 2
l6 2l6 2l4 2l6 2l6 2l4 2l6 2l6 2l6 2l5 2l6 2l6 2l4 2l6 2l6 2l4 2l6 2l6 2l4 2l7 3l6 2l4 2l6 2l6 2l6 2l4 2l12 4l4 2l7 2l6 2l4 2l6 2l6 2l4 2l6 2l2 2l4 2l2 2l4 2l2 2l5 4l2 3l2 2l4 4l2 2l2 4l2 2l2 4l2 6l2 2l2 6q7 22 3.5 43t-14.5 35q-24 33 -83 33h-4
q-5 -2 -14.5 -5.5t-13.5 -5.5l-5 -2l-6 -2l-6 -2l-4 -2l-6 -2l-6 -2l-4 -2l-12 -4l-6 -2l-5 -2l-6 -2l-6 -2l-4 -2l-6 -2l-6 -2l-4 -2l-6 -2l-6 -2l-4 -3l-7 -2l-12 -4l-4 -2l-6 -2l-6 -2l-4 -2l-6 -2l-6 -2l-4 -2l-7 -2l-6 -2l-4 -2l-6 -2l-6 -2l-4 -2l-6 -2l-6 -2l-2 -2
l-4 -2l-6 -2l-3 -2l-4 -2l-4 -3l-4 -2l-2 -2l-4 -2l-4 -2l-4 -2l-2 -2l-4 -2l-2 -2l-2 -2l-4 -2l-4 -2l-2 -2l-2 -2l-5 -2l-2 -2l-2 -2l-2 -2l-4 -2l-4 -4l-2 -2l-4 -2l-2 -2l-2 -2l-2 -2l-2 -2l-2 -2l-2 -3l-2 -2l-2 -2l-2 -2l-2 -2l-2 -2l-2 -2l-2 -2l-2 -4l-2 -2l-2 -2
l-3 -2l-2 -2l-2 -2l-2 -2l-2 -4l-2 -2l-2 -2l-2 -4l-2 -2l-2 -3l-2 -4l-2 -2l-2 -2l-2 -4l-2 -4l-2 -2l-2 -4l-2 -4l-2 -2l-2 -4l-2 -4l-2 -4l-2 -2l-2 -7l-2 -4l-2 -4l-3 -2l-2 -6l-2 -6l-2 -4l-2 -6l-2 -6l-2 -6l-2 -7l-2 -4v-4l-2 -6l-2 -8l-2 -12l-2 -13l-2 -26v-25
l2 -18v-6l2 -13l2 -10l2 -10l2 -4l2 -10l2 -6l2 -7l2 -4l2 -6l2 -6l2 -6l3 -4l2 -2l2 -6l2 -4l2 -4l2 -3l2 -6l2 -2l2 -4l2 -2l2 -4l2 -2l2 -6l2 -2l2 -2l2 -2l2 -4l2 -4h4v-6l2 -3l2 -2l2 -2l2 -2l3 -2l2 -2l2 -4l2 -2l2 -2l2 -2l2 -2l2 -2l2 -2l2 -2l2 -2l2 -2l2 -2l4 -2
l2 -2l2 -2l2 -2l2 -2l2 -2l2 -3l2 -2l4 -2l3 -2l4 -2l2 -2l2 -2l4 -2l4 -2l2 -2l4 -2l4 -2l2 -2l4 -2l2 -2l4 -2l6 -2l2 -2l7 -2l2 -2l6 -2l4 -2l4 -2l6 -2l6 -3l6 -2l6 -2l6 -2l9 -2l8 -2l6 -2h4l10 -2l16 -2h9l18 -2h2l31 2l18 2h4l8 2l10 2h4l4 2l11 2l6 2h4l4 2l6 2l6 3
l4 2l2 2v6l-2 6z" />
    <glyph glyph-name="gexingzhuangban2" unicode="&#xe658;" 
d="M705 264l299 38l-191 234l56 298l-281 -111l-264 147l18 -303l-220 -208l292 -77l128 -274l163 256v0zM550 116l-99 212l-225 58l169 161l-14 233l204 -113l217 86l-44 -230l148 -181l-231 -29l-125 -197v0zM312 227l37 -37l-292 -292l-37 38z" />
    <glyph glyph-name="sixin4" unicode="&#xe692;" 
d="M333 406q0 17 12 29.5t29 12.5t29.5 -12.5t12.5 -29.5t-12.5 -29.5t-29.5 -12.5t-29 12.5t-12 29.5zM460 406q0 17 12 29.5t29.5 12.5t29.5 -12.5t12 -29.5t-12 -29.5t-29.5 -12.5t-29.5 12.5t-12 29.5zM588 406q0 17 12 29.5t29 12.5t29.5 -12.5t12.5 -29.5t-12.5 -29.5
t-29.5 -12.5t-29 12.5t-12 29.5zM865 542q-29 58 -83 103q-112 95 -270 95t-270 -95q-53 -45 -83 -103q-30 -61 -30 -128t30 -128q30 -59 83 -104q112 -94 270 -94q34 0 68 5l56 -53q14 -14 34 -14q7 0 14 2q27 8 34 35l21 88q70 44 111 109q46 72 46 154q0 67 -31 128z
M831 272q-40 -62 -109 -104l-4 -2l-23 -97q-4 -14 -18 -18q-4 -1 -7 -1q-10 0 -18 7l-64 61l-6 -1q-34 -5 -70 -5q-149 0 -255 88q-49 42 -77 96q-28 56 -28 117.5t28 117.5q28 54 77 96q106 89 255.5 89t254.5 -89q50 -42 77 -96q28 -56 28 -117q0 -76 -41 -142z" />
    <glyph glyph-name="gexinghuashezhi" unicode="&#xe65d;" 
d="M253 444q-5 6 -13 6t-14 -6l-57 -57q-6 -6 -6 -14t6 -14l54 -54q11 -11 15 -18.5t1 -24.5t-20 -42q-8 -13 -20.5 -22t-21.5 -12.5t-27 -9.5q-49 -16 -71 -37q-35 -36 -35 -87t35.5 -86.5t86.5 -35.5t87 35q20 21 29 49q7 20 13 44q4 19 9 25t30 22q23 15 40.5 18.5
t26 -0.5t18.5 -14l54 -54q6 -6 14 -6t14 6l57 57q6 6 6 14t-6 14zM487 95l-41 41q-53 53 -133 1q-31 -19 -40 -31.5t-16 -38.5q-5 -23 -11 -41q-6 -19 -21 -33q-24 -25 -59 -25t-59.5 24.5t-24.5 59.5t25 59q15 15 55 29q20 6 31.5 11t28.5 17.5t29 30.5q21 31 26 56.5
t-2 42.5t-25 34l-41 41l31 30l277 -277zM297 493q-6 5 -14 5t-13.5 -5.5t-5.5 -13.5t6 -13l310 -310q5 -6 13 -6t13.5 5.5t5.5 13.5t-5 14zM663 219q2 1 4 3l256 224q14 12 15 31q2 30 -25 68.5t-74 90.5q-13 14 -16 17q-168 205 -243 188q-35 -8 -48 -54l-199 -231
q-2 -2 -3 -4l-2 2q-6 6 -14 6t-13.5 -5.5t-5.5 -13.5t5 -14l341 -341q6 -5 13.5 -5t13.5 5.5t6 13.5t-6 14zM589 803q6 2 14 0t25 -11.5t38 -27t54.5 -52.5t72.5 -83q4 -5 18 -19q90 -100 88 -130q0 -4 -1 -5l-16 -14q-31 63 -52.5 92t-39.5 34q-4 1 -8 1q-10 0 -18 -7
q-19 -14 -31 -4q-7 6 -1 16q26 52 -6 71q-24 15 -68.5 -4t-65.5 -47q-8 -10 -19 -10q-18 -1 -31 16q-6 7 -4 13q3 23 58 57q13 9 14 24q3 25 -39 70q7 18 18 20zM642 251q-3 -3 -5 -6l-281 281q3 2 6 5l188 218q19 -22 22 -30q-66 -41 -72 -80q-4 -24 12 -44q25 -31 62 -30
q30 0 48 25q14 18 42.5 31t40.5 11q-1 -8 -8 -21q-8 -18 -5 -35t16 -28q15 -13 36 -13t39 13q21 -15 69 -113zM960 231q-12 19 -19 30.5t-14 34.5t-6 47q1 17 -15 20t-22 -12q-17 -48 -47 -104q-23 -45 -23 -64q0 -29 24.5 -50t59.5 -21t59.5 21t24.5 50q0 17 -22 48z
M898.5 150q-18.5 0 -32.5 10t-14 23q0 10 19 46q14 27 23 44q9 -27 35 -64q15 -21 15 -26q0 -13 -13.5 -23t-32 -10z" />
    <glyph glyph-name="luyin1" unicode="&#xe64e;" 
d="M510 286q46 0 78.5 32.5t32.5 77.5v136q0 45 -32.5 77.5t-78.5 32.5t-78.5 -32.5t-32.5 -77.5v-136q0 -45 32.5 -77.5t78.5 -32.5zM436 532q0 30 22 51t52.5 21t52 -21t21.5 -51v-136q0 -30 -21.5 -51t-52 -21t-52.5 21t-22 51v136zM509 817q-89 0 -169.5 -34.5t-139 -93
t-93 -139.5t-34.5 -169.5t34.5 -169t93 -139t139 -93t169.5 -34.5t169.5 34.5t139 93t93 139t34.5 169t-34.5 169.5t-93 139.5t-139 93t-169.5 34.5zM509 -18q-108 0 -200 53.5t-145.5 145.5t-53.5 200t53.5 200t145.5 145.5t200 53.5t200 -53.5t145.5 -145.5t53.5 -200
t-53.5 -200t-145.5 -145.5t-200 -53.5zM664 477v-0.5v-0.5q0 -76 -1 -81q-1 -62 -45.5 -105.5t-107.5 -43.5t-108 44t-45 106v80l-0.5 0.5l-0.5 0.5h-36l-0.5 -0.5l-0.5 -0.5v-81q1 -72 51 -125.5t123 -60.5v-89h37v90q71 7 120.5 60t50.5 124v39.5v42.5v0.5v0.5h-37z" />
    <glyph glyph-name="record" unicode="&#xe62e;" 
d="M512 835q92 0 174 -35t144.5 -97.5t97 -144.5t34.5 -174t-34.5 -174t-97 -144.5t-144.5 -97.5t-173.5 -35t-174 35t-145 97.5t-97 144.5t-34.5 174t34.5 174t97 144.5t145 97.5t173.5 35v0zM804 676q-57 57 -132.5 89t-159.5 32t-159.5 -32t-132.5 -89t-89 -132.5
t-32 -159.5t32 -159.5t89 -132.5t132.5 -89t159.5 -32t159.5 32t132.5 89t89 132.5t32 159.5t-32 159.5t-89 132.5zM512 281q50 0 85 35t35 85v138q0 49 -35 84.5t-85 35.5t-85 -35.5t-35 -84.5v-138q0 -50 35 -85t85 -35v0zM426 539q0 35 25.5 60.5t61 25.5t60.5 -25.5
t25 -60.5v-138q0 -35 -25 -60.5t-60.5 -25.5t-61 25.5t-25.5 60.5v138zM718 401h-34q0 -71 -50.5 -121.5t-121.5 -50.5t-121.5 50.5t-50.5 121.5h-34q0 -80 54.5 -139.5t134.5 -65.5v-53h-103v-34h240v34h-103v53q77 6 131 62t58 133v10z" />
    <glyph glyph-name="hi1" unicode="&#xe62b;" horiz-adv-x="1038" 
d="M638 -45l-3 -1l-1 -1q1 1 2 1t2 1zM222 737v0v0zM222 738h1q-1 0 -1 -1v1zM325 40h1h-1zM142 180l1 -2l-1 2v0zM505 -61q0 -1 0.5 -1h0.5h0.5t0.5 -1h0.5t0.5 -1zM222 100q0 1 -1 1zM933 704q-97 121 -254 169q-164 49 -327 -2q-157 -50 -252 -171q-102 -130 -100 -287
q2 -162 113 -291q52 -61 122.5 -103t149.5 -61q1 0 7 -1.5t9 -2.5q5 -2 7 -4l1 -1v0q1 -1 3.5 -3l2.5 -2l13 -13l9.5 -9.5t11 -11.5t10 -10t12.5 -10.5t12 -7.5q39 -23 76 3q7 5 15 12t13 12t14 14.5t13 12.5l11 11q1 1 4 3l-1 -0.5t-2 -1.5q1 1 3.5 2.5t3.5 2.5l2 1
q-1 0 -2 -1l2 1h0.5t0.5 1h2h0.5h0.5q3 1 10 2.5t10 2.5q39 10 81 28q73 31 135 86q60 51 100 120t54 144q7 42 8 81q-1 157 -104 285zM975 380q0 -1 -0.5 -4t-0.5 -5q0 -1 -0.5 -3t-1.5 -8t-2 -10q-6 -36 -19 -70q-1 -1 -2 -4t-2 -4q0 -1 -0.5 -2l-0.5 -1v0q-5 -11 -8 -17
q-7 -16 -17 -32q-9 -15 -19 -30l-6 -7q0 -1 -3 -4l1 1l-12 -15q-24 -28 -51 -51q-6 -6 -14 -12l-1 -1q-1 0 -1 -0.5t-0.5 -0.5t-0.5 -1h-1q-1 -1 -3.5 -2.5t-3.5 -2.5q-15 -11 -31 -21q-15 -9 -33 -19q-3 -1 -8.5 -3.5t-8.5 -4.5q-5 -2 -8 -3q-3 -2 -4 -2v0q-7 -2 -19.5 -7
l-17.5 -7q-16 -5 -37 -11q-28 -7 -36 -11q-12 -7 -29 -23q-1 -1 -23 -24l-12 -12l-6 -6q-2 -1 -3 -2q-2 -1 -5.5 -3t-4.5 -3h-0.5t-0.5 -0.5t-1 -0.5v0l-3 1l-0.5 0.5t-1.5 0.5q-1 1 -5 3l-2 2v0l-2 1h1v-1l-5 5q-7 6 -13 12q-2 2 -10.5 11t-13.5 14q-16 16 -29 23
q-9 6 -34 12q-37 10 -74 24v0q-1 1 -1.5 1t-1 0.5l-0.5 0.5q-2 1 -9 4t-18 9q-16 8 -33 18q-14 8 -31 21q-6 4 -7 4q-2 2 -3 2q-2 3 -8 7.5t-7 5.5q-29 25 -52 52q-6 7 -11 13l-0.5 0.5l-0.5 0.5l-1 1v1h-1q-3 4 -5 7q-13 20 -20 31q-9 16 -17 31q-4 8 -7 17q-1 0 -2 3v0
q-1 3 -3 8q-13 34 -20 70q-2 10 -3 18l-1 3q-1 5 -1 10q-2 19 -2 37q0 20 1 37q1 6 2 16v1.5v1.5l2 10q6 35 18 69q2 5 6 16l0.5 1l0.5 1q1 2 2 5l1 3q8 16 17 32q8 16 18 29q3 5 9 14q1 2 3 4t2 3q1 1 1.5 2t1.5 1q-1 0 -1 -0.5t-1 -0.5q1 1 2 1q21 27 47 51q14 13 28 24
l2 1v1v0h0.5h0.5v0q1 1 3 2.5t3 2.5q8 6 15 10q30 21 63 37q6 3 17 7l0.5 0.5t1 0.5h0.5v0v0l1 1v-1q1 1 4 2t5 2q20 8 35 12q37 11 75 17q1 0 5 1h2h-4h3t3.5 0.5t3.5 0.5q11 1 19 2q20 1 40 1q19 0 39 -1q5 0 19 -2q1 0 3.5 -0.5t4.5 -0.5h-0.5h-0.5h0.5h0.5h0.5h1.5h1
l3 -1q37 -5 73 -16q21 -6 37 -13q1 0 4 -1t4 -2q1 0 1.5 -0.5t1.5 -0.5q7 -3 17 -8q34 -16 63 -36q6 -3 15 -10q3 -2 7 -5l1 -0.5t1 -1.5h0.5h0.5q15 -13 27 -23q26 -24 48 -52l1.5 -1.5t1 -1.5t2 -2.5l2.5 -2.5l10 -15q10 -15 18 -30q9 -16 16 -31q1 -1 2 -4t2 -4
q0 -1 0.5 -2l0.5 -1v0v0q3 -7 6 -16q13 -35 18 -68q1 -1 1 -2.5t0.5 -3.5t0.5 -3v-6v1v3v0q0 -4 1 -10.5t1 -7.5q1 -16 1 -35q0 -21 -1 -39zM816 102v0l-2 -2zM947 567v0v0zM584 832v0l4 -1l-1 1h-1h-2zM327 798h-1h1zM541 469h-148v121q0 12 -8.5 21.5t-20.5 8.5
q-13 0 -21.5 -8.5t-8.5 -21.5v-349q0 -12 9 -21t21 -9q12 1 20.5 9.5t8.5 20.5v168h118v-168q0 -12 9 -21t21 -8q12 0 21 8.5t9 20.5v196v2q0 12 -9 21t-21 9zM675 602q-12 -1 -20.5 -9.5t-8.5 -20.5v-37q0 -12 9 -21.5t20 -8.5q13 0 21.5 8.5t8.5 21.5v37q0 12 -9 21t-21 9
zM675 469q-12 -1 -20.5 -9.5t-8.5 -20.5v-198q0 -12 9 -21t20 -9q13 1 21.5 9.5t8.5 20.5v198q0 12 -9 21t-21 9z" />
    <glyph glyph-name="fujin" unicode="&#xe65b;" horiz-adv-x="1356" 
d="M677 -38q-159 0 -245 33t-86 92q0 33 45 61.5t118 45.5l23 -39q-62 -11 -97.5 -29t-35.5 -39q0 -32 82.5 -52t195 -20t195.5 20t83 52q0 21 -36 39t-97 29l22 39q74 -17 119 -45.5t45 -61.5q0 -58 -88.5 -91.5t-242.5 -33.5v0zM897 345l-191 -221v0q-13 -16 -25 -16
q-10 0 -23 16q-206 225 -209 230q-11 15 -12 18q-46 72 -46 148q0 118 84 201.5t202 83.5t201.5 -83.5t83.5 -201.5q0 -84 -45 -154q-6 -7 -20 -21v0zM677 752q-97 0 -165.5 -68t-68.5 -165q0 -61 35 -112q3 -5 10.5 -14.5t12.5 -15.5l6 -7l176 -196l161 190q8 11 18 25
q49 70 49 130q0 97 -68.5 165t-165.5 68v0zM677 410q-46 0 -78 32.5t-32 78t32 77.5t77.5 32t78 -32t32.5 -77.5t-32.5 -78t-77.5 -32.5v0zM677 577q-24 0 -40.5 -16.5t-16.5 -40t16.5 -40.5t40 -17t40.5 17t17 40.5t-17 40t-40 16.5v0zM677 577z" />
    <glyph glyph-name="wenhao1" unicode="&#xe62c;" horiz-adv-x="1029" 
d="M1007 487q17 60 -3 116q-26 54 -71 98q-49 44 -113 77q-66 34 -137 55q-127 37 -259 39q-133 2 -242 -39q-58 -21 -86 -35q-44 -19 -57 -62q-7 -25 10 -51q15 -27 50 -37q45 -14 68 -9q19 3 37 19q3 2 7.5 7t6.5 7l13 15q12 18 30 30q31 17 81 22q46 5 108 2
q39 -2 115 -11q74 -16 95 -22q27 -8 76 -29q36 -18 66 -42q24 -21 40 -50q11 -30 2 -60q-10 -34 -46 -49q-35 -14 -80 -18q-54 -5 -95 -4q-27 1 -90 0q-47 -4 -72 -10q-37 -9 -64 -24q-54 -27 -84 -59q-30 -30 -46 -82q-5 -18 -5 -31q-3 -21 3 -38q2 -17 17 -35
q11 -16 38 -24q37 -11 72 6q36 15 44 41l3 11q-4 6 -3 12q0 3 3 13q14 51 49 69q35 17 103 21q42 3 66 5q47 1 63 3q44 3 65 7q27 4 61 12q55 15 101 46q43 32 60 88zM410 -47q9 33 -22 66q-35 31 -70 41q-18 6 -49 8q-25 2 -52 -3q-26 -8 -40 -19q-18 -13 -24 -33
q-9 -30 19 -62q29 -32 67 -44q13 -3 51 -8q28 -1 52 4q22 4 44 17q18 14 24 33v0z" />
    <glyph glyph-name="zhuanfa1" unicode="&#xe65e;" horiz-adv-x="1147" 
d="M698 600q-147 -23 -261 -83t-194 -158q-81 -98 -134 -216q-39 -88 -64 -187q103 129 246 200q174 86 407 86q6 0 10.5 -4.5t4.5 -11.5v-1v-230l396 423l-396 423v-225q0 -6 -4 -11t-11 -5v0zM424 546q113 60 259 84v250v0q0 7 4 11q11 12 22 0l433 -461q10 -12 0 -23
l-433 -462v0q-5 -5 -11 -5t-10.5 5t-4.5 11v254q-217 -3 -379 -83q-167 -83 -276 -248q-6 -9 -16 -7q-6 2 -9.5 7.5t-2.5 11.5q27 143 82 265.5t138 224.5q84 102 204 165v0z" />
    <glyph glyph-name="setting" unicode="&#xe630;" 
d="M945 438h-70q-14 86 -64 157l49 49q19 18 19 44t-18.5 44t-44.5 18t-44 -18l-48 -48q-71 51 -157 65v68q0 26 -18.5 44.5t-44.5 18.5t-44 -18.5t-18 -44.5v-68q-86 -14 -157 -65l-48 48q-18 18 -44 18t-44.5 -18t-18.5 -44t18 -44l49 -49q-49 -71 -63 -157h-71
q-25 0 -43.5 -18t-18.5 -44t18.5 -44.5t43.5 -18.5h72q15 -83 65 -153l-52 -52q-18 -18 -18 -44t18.5 -44t44 -18t44.5 18l52 52q70 -48 153 -62v-75q0 -26 18 -44.5t44 -18.5t44.5 18.5t18.5 44.5v75q83 14 152 62l53 -52q18 -18 44 -18t44.5 18t18.5 44t-19 44l-52 52
q50 70 65 153h72q26 0 44.5 18.5t18.5 44.5t-18.5 44t-44.5 18zM504.5 130q-103.5 0 -176.5 73t-73 176.5t73 177t176.5 73.5t176.5 -73.5t73 -177t-73 -176.5t-176.5 -73z" />
    <glyph glyph-name="shoucang4" unicode="&#xe631;" 
d="M919 785h-452v0v13v1h452q1 0 1 -1v-13h-1zM515 179q-20 0 -29 14l-180 183q-36 39 -36 89q0 53 36.5 90.5t87.5 37.5t87 -36l33 -39l33 39q38 36 87 36q51 0 87.5 -37.5t36.5 -90.5q3 -49 -34 -89v0l-181 -184v0q1 0 -2.5 -3.5t-10 -6.5t-15.5 -3zM394 581
q-46 0 -78.5 -34t-32.5 -82q0 -46 32 -80l181 -184q7 -9 19 -9q13 0 19 8l181 185q33 35 30 80q0 48 -32.5 82t-78.5 34q-44 0 -78 -33l-42 -50l-43 50q-31 33 -77 33zM373 546v0v0v0zM369 532v0q8 3 4 14l-2 5q-2 6 -8 3q-23 -10 -41 -35.5t-15 -63.5q0 -6 6 -6l11 2
q6 0 5 6q-2 51 40 75zM913 711h-442q-15 0 -25 11l-86 95q-14 16 -34 16h-211q-20 0 -34 -15.5t-14 -36.5v-790q0 -21 14 -36t34 -15h798q20 0 34 15t14 36v668q0 22 -14 37t-34 15zM115 820h211q14 0 25 -11l86 -95q14 -15 34 -15h442q15 0 25 -12t10 -28v-554h-868v676
q0 16 10.5 27.5t24.5 11.5zM913 -48h-798q-14 0 -24.5 11.5t-10.5 27.5v57h868v-57q0 -16 -10 -27.5t-25 -11.5z" />
    <glyph glyph-name="faxian2" unicode="&#xe632;" 
d="M513 510q-52 0 -88.5 -36.5t-36.5 -88.5t36.5 -88.5t88.5 -36.5t88.5 36.5t36.5 88.5t-36.5 88.5t-88.5 36.5v0zM513 302q-35 0 -60 25t-25 59.5t24.5 58.5t59 24t59 -24t24.5 -59t-24 -59.5t-58 -24.5v0zM844 391v1v2q-1 0 -1 0.5v0.5v1v1q-45 102 -135 160.5t-196 58.5
q-107 0 -198 -58.5t-135 -160.5q-1 0 -1 -0.5v-1v-1v-0.5q-1 0 -1 -1.5v-1.5q-1 -4 -1 -6t1 -5v-2t1 -1v-1v-0.5v-1t1 -0.5q44 -102 134.5 -160t197 -58t197 57.5t135.5 160.5v0.5v1v0.5h1v2v2q1 3 1 5t-1 6v0zM511 198q-93 0 -172 48.5t-120 138.5q41 91 121 140t172 49
t170.5 -49t119.5 -140q-41 -90 -120 -138.5t-171 -48.5v0zM511 198zM511 -62q-91 0 -174 35.5t-143 95.5t-95.5 143t-35.5 174t35.5 174t95.5 143t143 95.5t173.5 35.5t173.5 -35.5t143 -95.5t95.5 -143t35.5 -174t-35.5 -174t-95.5 -143t-143 -95.5t-173 -35.5v0zM511 806
q-114 0 -211 -56.5t-153 -153t-56 -210.5t56 -210.5t153 -153t210.5 -56.5t210.5 56.5t153 153t56 210.5t-56 210.5t-153 153t-210 56.5v0zM511 806z" />
    <glyph glyph-name="zhuanfa2" unicode="&#xe633;" horiz-adv-x="1025" 
d="M966 480l-5 5l-278 241l-58 50l-28 24v-247q-194 0 -349.5 -109t-215.5 -282h-0.5t-0.5 -1t-1 -3.5t-1 -3.5l-5 -16q-6 -19 -9 -35q-3 -10 -4 -18q-4 -16 -6 -36l-1 -7t-1 -10q-3 -29 -3 -54v-10q11 26 31 58q6 10 7 12q19 28 40 52q2 1 4.5 4t3.5 4q76 82 188.5 135.5
t237.5 68.5v5l5 -5q40 5 80 5v-247l60 52l26 22l278 241l1 1l62 54zM683 244v144h-86q-212 0 -398 -101q72 86 176 136t222 50h86v143l215 -186z" />
    <glyph glyph-name="baidu0" unicode="&#xe6a6;" 
d="M274 365q23 4 38 18t21.5 29t8.5 35t1 29.5t-2 20.5q-3 28 -31 57t-63 26q-19 -2 -33.5 -12.5t-22 -24.5t-12.5 -28t-6 -24l-1 -9q-5 -24 3.5 -53.5t34.5 -50.5t64 -13zM360 200q-8 -22 -3 -38q4 -15 14 -22t19 -7l8 1h46v91h-46q-14 -4 -25.5 -12t-12.5 -13zM424 523
q34 0 57.5 33t23.5 79.5t-23.5 79.5t-57.5 33t-57.5 -33t-23.5 -79.5t23.5 -79.5t57.5 -33zM617 516q41 -6 70 27.5t35 74.5q6 35 -17 69.5t-56 41.5q-30 7 -63 -29t-37 -71q-5 -45 10.5 -76.5t57.5 -36.5zM763 238q-10 8 -27 21.5t-56 52t-63 71.5q-26 40 -59 56.5
t-62 11.5t-53.5 -20.5t-37.5 -37.5q-16 -25 -38 -48t-39.5 -37.5t-19.5 -16.5q-1 -1 -14.5 -11t-26.5 -22t-28 -33t-19.5 -44t0.5 -54q18 -81 90 -103l20 -4q54 3 123 18q35 7 64 5.5t47 -5t18 -4.5q3 -1 9 -2.5t23.5 -5t34.5 -5t39 0t40 7t34.5 19.5t25.5 35q12 29 14 55
t-4 43.5t-13.5 31t-14.5 19.5zM489 88h-114q-42 1 -60 42q-15 34 -8 72q8 27 25.5 44.5t30.5 20.5l12 3h69v69h45v-251v0zM671 88h-114q-20 1 -31 12t-13 21l-1 10v139h45v-113q2 -6 7.5 -11.5t10.5 -8.5l5 -3h46v136h45v-182zM854 436q0 11 -4.5 24.5t-14 29.5t-28.5 26.5
t-44 10.5q-81 0 -81 -110q0 -16 1 -27.5t6 -27t14.5 -25t27.5 -16t44 -6.5q14 1 25.5 4t19.5 10t14.5 13.5t9.5 17t5.5 17.5t3 18.5t1 16.5t0.5 14.5v9.5z" />
    <glyph glyph-name="dianzandian" unicode="&#xe660;" 
d="M935 583q-16 83 -81 137t-148 54q-21 0 -42 -4q-93 -17 -150 -86q-86 102 -223 87q-67 -7 -122.5 -56t-72.5 -117q-23 -92 20 -194q42 -97 129 -178q46 -42 140 -121l28 -24q20 -17 61 -49l2 -2q19 -15 26 -20l12 -10l33 26q27 22 42 34l26 21q127 102 185 162
q78 80 113 165q39 93 22 175z" />
    <glyph glyph-name="gexingzhuti" unicode="&#xe634;" horiz-adv-x="1314" 
d="M1298 591q0 -1 -1 -1t-1 -1l-149 -208q0 -1 -0.5 -2.5t-1.5 -2.5q0 -1 -2.5 -3t-2.5 -3l-3 -3q0 -1 -1 -1t-1 -1q-4 -3 -9 -5q-5 -3 -9 -4q-3 -2 -10 -2l-5 -1q-17 0 -28 6l-44 23l26 -462q0 -20 -14 -34t-34 -14h-704q-20 0 -34 14t-14 34l26 462l-44 -23q-11 -6 -27 -6
q-1 0 -6 1q-6 0 -10 2q-4 1 -9 4q-5 2 -9 5q0 1 -1 1t-1 1l-2 3l-3 3l-3 3t-1 2.5t-1 2.5l-149 208q0 1 -1 1t-1 1q-14 14 -14 33.5t14 33.5l160 160q6 6 15 10l1 1q1 2 2 3q64 64 160 64h96q64 0 128 -64q18 -17 33 -24t47 -8q32 1 47.5 8t32.5 24q64 64 128 64h96
q96 0 160 -64q1 -1 2 -3l1 -1q9 -4 15 -10l160 -160q14 -14 14 -33.5t-14 -33.5zM1071 751l-0.5 0.5l-0.5 0.5q-59 48 -110 48h-64q-23 0 -60.5 -17.5t-67.5 -46.5q-18 -18 -36 -25.5t-35 -7.5t-41 1q-23 -1 -40.5 -1t-35.5 7.5t-36 25.5q-28 28 -80.5 46t-79.5 18h-8h-1
h-23q-51 0 -110 -48l-0.5 -0.5l-0.5 -0.5l-131 -132l113 -158l65 35v0q0 20 14 34t34 14t34 -14t14 -34l-1 -23q2 -12 -1 -23l-27 -482h602l-26 482q-4 11 -2 23l-1 23q0 20 14 34t34 14t34 -14t14 -34v0l65 -35l113 158z" />
    <glyph glyph-name="zhanghu1" unicode="&#xe635;" 
d="M873 896h-708q-50 0 -85 -34t-35 -83v-787q0 -50 34 -84t83 -34h709q49 0 83 34t34 84v787q2 49 -32 83t-83 34zM911 -8q0 -17 -11 -28t-27 -11h-708q-17 0 -28 11.5t-11 27.5v787q0 16 11.5 27t27.5 11h708q16 0 27 -11.5t11 -26.5v-787zM717 312h-171v49h171
q12 0 19.5 8.5t7.5 19.5q0 10 -8.5 18.5t-18.5 8.5h-137l135 196q8 11 5 20q-5 14 -12 18q-11 8 -20 5q-14 -5 -18 -12l-151 -216l-151 219q-8 11 -18 11q-9 3 -20.5 -4.5t-11.5 -18.5q-4 -11 5 -20l135 -196h-138q-11 0 -19 -8.5t-8 -18.5t8.5 -18.5t18.5 -8.5h172v-50
h-172q-11 0 -19 -8t-8 -19q0 -10 8.5 -18.5t18.5 -8.5h172v-117q0 -12 8 -19.5t19 -7.5q10 0 18.5 8.5t8.5 18.5v117h171q12 0 19.5 8t7.5 19q0 10 -7.5 17.5t-19.5 7.5z" />
    <glyph glyph-name="liebiao11" unicode="&#xe637;" 
d="M336 348q-18 4 -28.5 19.5t-6.5 33.5t19.5 28t33.5 6.5t28 -19t6.5 -34t-19 -28.5t-33.5 -6v0v0zM380 518q4 18 19.5 28t33.5 6t28.5 -19t6.5 -33.5t-19.5 -28.5t-33.5 -6.5t-28.5 19t-6.5 34.5v0v0zM459 634q4 18 19.5 28.5t33.5 6.5t28.5 -19.5t6.5 -33.5t-19.5 -28
t-33.5 -6.5t-28 19t-7 33.5v0v0zM928 469l-211 -323q-13 -20 -32 -46t-54 -65.5t-61 -53.5q-82 -46 -165 0l-330 230q-64 59 -34 167l12 40l93 -63v0q107 -75 144 -97q12 -7 31.5 -17t38.5 -20t36 -19t28 -14l11 -5q-17 -28 -20.5 -48t2.5 -40q3 -14 17 -26q10 -19 39 -29
q17 -6 38.5 3t40 26t34.5 35.5t25.5 31.5t9.5 14l281 416l-416 200l-236 -362q-6 -10 -16 -15t-20 -1q-10 5 -14 12.5t-4.5 13t3.5 15.5t6 13t7 11l242 365q30 20 57 14l409 -179q19 -8 33 -16.5t21.5 -18t12 -17t3 -19t-3 -18.5t-10 -21.5t-13.5 -22t-17 -25t-18 -26.5v0v0
zM928 469zM734 472l-117 55q-15 7 -21 22.5t1 30.5l1 1q7 15 22.5 21t30.5 -1l117 -55q15 -6 20.5 -22t-1.5 -30l-1 -2q-7 -15 -22.5 -20.5t-29.5 0.5zM649 347l-115 59q-14 8 -19 23.5t2 30.5l1 1q8 15 23.5 20t30.5 -2l114 -59q15 -8 20 -23.5t-3 -30.5l-1 -2
q-7 -14 -23 -19t-30 2zM564 221l-113 62q-15 8 -19.5 24t3.5 30l1 2q8 14 24 18.5t30 -2.5l113 -62q14 -8 19 -24t-3 -30l-1 -2q-8 -15 -24 -19.5t-30 3.5z" />
    <glyph glyph-name="biaoqing-copy" unicode="&#xe638;" 
d="M512 -128q-139 0 -257 68.5t-186.5 186.5t-68.5 257t68.5 257t186.5 186.5t257 68.5t257 -68.5t186.5 -186.5t68.5 -257t-69 -257t-187 -186.5t-256 -68.5zM512 851q-95 0 -181.5 -37t-149 -99.5t-99.5 -149t-37 -181.5t37 -181.5t99.5 -149t149 -99.5t181.5 -37
t181.5 37t149 99.5t99.5 149t37 181.5t-37 181.5t-100 149t-149.5 99.5t-180.5 37zM801 342q0 -121 -84.5 -205.5t-204.5 -84.5t-204.5 84.5t-84.5 205.5h578zM617 546.5q0 -23.5 17 -40.5t40.5 -17t40.5 17t17 40.5t-17 40.5t-40.5 17t-40.5 -17t-17 -40.5zM289 546.5
q0 -23.5 17 -40.5t41 -17t41 17t17 40.5t-17 40.5t-41 17t-41 -17t-17 -40.5z" />
    <glyph glyph-name="zhuanfa3" unicode="&#xe63e;" 
d="M754 406q0 8 -5 13l-196 169q-5 4 -11 4q-7 0 -12.5 -5t-5.5 -13v-74q-112 -18 -184.5 -93.5t-79.5 -181.5q0 -11 11 -11q4 0 6 2v0q37 26 66 41q69 38 181 50v-69q0 -8 5.5 -13t12.5 -5q6 0 11 4l195 169v0q6 5 6 13v0zM560 276v69l-19 -1q-65 -5 -131 -23t-107 -47
q22 78 86 130t155 63l16 2v67l150 -130l-150 -130v0zM512.5 -64q-90.5 0 -173.5 35.5t-143 95.5t-95.5 143t-35.5 174t35.5 173.5t95.5 142.5t143 95.5t173.5 35.5t173.5 -35.5t143 -95.5t95.5 -142.5t35.5 -173.5t-35.5 -174t-95.5 -143t-143 -95.5t-173.5 -35.5zM513 811
q-116 0 -214.5 -57t-156 -155.5t-57.5 -214.5t57.5 -214.5t156 -156t214.5 -57.5t214.5 57.5t155.5 156t57 214.5t-57 214.5t-155.5 155.5t-214.5 57z" />
    <glyph glyph-name="zhanghu2" unicode="&#xe640;" 
d="M131 30q15 51 84 77q19 7 62 15.5t50 10.5q6 2 17 5t17 4q42 11 66.5 48.5t24 82.5t-25.5 79q-1 3 -6 9q-21 25 -57 69q-4 4 -6 7q-3 2 -11 7.5t-12.5 10.5t-5.5 9q-3 17 -4 54q0 10 7 12q21 7 22 66q0 71 1 85q2 41 18 58t56 24q32 4 90 18q33 7 55 -18q18 -21 46 -17
q50 8 55 -45q2 -16 4 -120q0 -44 14 -52l7.5 -2.5t6 -4t2.5 -8.5q9 -50 -32 -71q-6 -3 -18 -20q-6 -9 -17 -26.5t-16 -25.5q-35 -38 -44 -86.5t14 -90t76 -56.5q10 -2 29.5 -6t31 -6.5t27.5 -7t29 -8.5q44 -14 69.5 -28.5t38.5 -36t17 -43.5t5 -61h39q-1 45 -5.5 73
t-17.5 53t-37.5 42t-65.5 33q-15 6 -33.5 11t-32 8t-36 7.5t-33.5 6.5q-59 12 -73.5 58.5t24.5 105.5q6 9 18.5 29t19.5 31q14 20 21 23q48 24 38 82q-7 38 -19 45q-8 4 -11.5 10t-4 9.5t-0.5 12.5q-2 123 -5 153q-3 29 -21 42.5t-48 8.5q-32 -5 -52 19q-25 30 -64 21
q-67 -15 -104 -21q-94 -14 -98 -106q-1 -17 -2 -99q0 -2 0.5 -11t0 -12.5t-2.5 -9.5t-6.5 -10t-12.5 -6q-7 -3 -7 -14q1 -72 4 -89q1 -6 6.5 -11t14.5 -11.5t12 -9.5q4 -3 8 -8q41 -50 65 -79q6 -8 7 -11q16 -48 -1.5 -84.5t-65.5 -52.5q-5 -2 -39 -11q-12 -3 -37.5 -8.5
t-44.5 -10.5t-36 -11q-80 -29 -98 -88q-5 -16 -7.5 -33.5t-4.5 -41t-3 -35.5h49q9 70 15 89z" />
    <glyph glyph-name="fujin1" unicode="&#xe63f;" 
d="M659 530.5q0 61.5 -43 104.5t-103.5 43t-103.5 -43t-43 -104.5t43 -105t103.5 -43.5t103.5 43.5t43 105zM434 530q0 33 23 56.5t55 23.5t55 -23.5t23 -56.5t-23 -56t-55 -23t-55 23t-23 56zM927 160q-50 45 -176 71q-14 2 -26 -5.5t-15 -21.5t5 -26t22 -15
q108 -22 144 -54q12 -11 10 -17q-5 -11 -28.5 -24.5t-66.5 -28t-118 -23.5t-166 -9t-165.5 9t-117.5 23.5t-67 28t-28 24.5q-2 6 9 17q29 25 104 45t173 27q2 0 5 1h0.5h0.5l6 2v0v0q7 3 11 9l0.5 0.5l0.5 0.5q2 3 3 4q0 1 0.5 1.5t0.5 1.5q1 2 2 3v2v1q1 3 1 4v4q0 5 -1 9
v1v1q-1 3 -2 5v0q-2 3 -4 5q-154 196 -154 290q0 97 65.5 166t157 69t156.5 -69t65 -166q0 -39 -28 -97.5t-70.5 -118t-80 -105t-68.5 -79.5q-10 -10 -9.5 -24.5t11.5 -23.5q10 -10 23 -10q15 0 25 11q17 19 39 43.5t65.5 80.5t76.5 106.5t59 111t26 105.5q0 126 -85.5 215
t-205.5 89t-205 -89t-85 -215q0 -103 131 -283q-189 -23 -255 -83q-48 -43 -28 -93q23 -60 141.5 -94.5t300.5 -34.5t301 34.5t142 94.5q19 50 -28 93z" />
    <glyph glyph-name="xiangce-copy" unicode="&#xe641;" 
d="M882 745h-741q-27 0 -46.5 -19t-19.5 -46v-591q0 -27 19.5 -46t46.5 -19h741q27 0 46.5 19t19.5 46v591q0 27 -19.5 46t-46.5 19zM903 238l-224 195l-123 -127l56 -83l-258 225l-234 -198v407q0 18 12.5 31t30.5 13h697q18 0 30.5 -13t12.5 -31v-419z" />
    <glyph glyph-name="yaoyiyao2" unicode="&#xe673;" 
d="M421 244h183q7 0 11.5 4.5t4.5 10.5v311q0 6 -4.5 11t-11.5 5h-183q-6 0 -10.5 -5t-4.5 -11v-311q0 -7 4.5 -11t10.5 -4zM437 554h152v-280h-152v280zM513 180q-9 0 -15 -6t-6 -15t6 -15.5t15 -6.5t15.5 6.5t6.5 15.5t-6.5 15t-15.5 6zM979 500q-1 7 -8 12l-248 154
q0 14 -10.5 24.5t-24.5 10.5h-350q-14 0 -24 -10.5t-10 -24.5v-1l-247 -153q-7 -5 -8 -12q-2 -7 2 -14l222 -351v69l-181 286l212 132v-47l-155 -92q-7 -4 -6 -13q0 -1 2 -4l129 -205v46l-102 161l132 78v-466q0 -14 10 -24.5t25 -10.5h357q10 0 17.5 6.5t8.5 15.5l1 481
l133 -80l-104 -166v-45l131 209q2 3 2 5q1 8 -6 12l-157 93v47l214 -133l-184 -291v-68l225 355q4 7 2 14zM670 99h-314v549h314v-549z" />
    <glyph glyph-name="12" unicode="&#xe646;" 
d="M64 384q0 -91 35.5 -174t95.5 -143t143 -95.5t174 -35.5t174 35.5t143 95.5t95.5 143t35.5 174t-35.5 174t-95.5 143t-143 95.5t-174 35.5t-174 -35.5t-143 -95.5t-95.5 -143t-35.5 -174zM912 183l-150 150l-70 -24l-46 -13l-54 13l-42 20h-54l-33 -24l-49 -7l-31 9
l-47 20l-52 6v-168l229 -229q129 1 236 68.5t163 178.5zM414 351q28 0 54.5 18t55 18t57 -18t56.5 -18l-4 10l-32 97q-11 32 -39 51t-62 17l-42 126q9 4 12.5 13t0.5 18l-2 6q-3 10 -13 15t-20 1l-55 -18q-10 -3 -15 -13t-1 -20l2 -6q3 -9 11.5 -14t17.5 -3l43 -126
q-28 -19 -39 -50.5t0 -64.5l11 -34zM637.5 118q-31.5 0 -63.5 20q-25 16 -50.5 16t-51.5 -16q-31 -20 -62.5 -20t-63.5 20q-25 16 -51 16q-4 0 -7.5 3.5t-3.5 8t3.5 8t7.5 3.5q32 0 63 -20q26 -17 51.5 -17t50.5 17q32 20 63.5 20t62.5 -20q26 -17 51 -17t51 17q31 20 63 20
q5 0 8 -3.5t3 -8t-3 -8t-8 -3.5q-25 0 -51 -16q-31 -20 -62.5 -20zM637.5 202q-31.5 0 -63.5 20q-25 16 -50.5 16t-51.5 -16q-31 -20 -62.5 -20t-63.5 20q-25 16 -51 16q-4 0 -7.5 3.5t-3.5 8t3.5 7.5t7.5 3q32 0 63 -20q26 -16 51.5 -16t50.5 16q32 20 63.5 20t62.5 -20
q26 -16 51.5 -16t50.5 16q31 20 63 20q5 0 8 -3t3 -7.5t-3 -8t-8 -3.5q-25 0 -51 -16q-31 -20 -62.5 -20zM637.5 285q-31.5 0 -63.5 20q-25 17 -50.5 17t-51.5 -17q-31 -20 -62.5 -20t-63.5 20q-25 17 -51 17q-4 0 -7.5 3t-3.5 8t3.5 8t7.5 3q32 0 63 -20q26 -16 51.5 -16
t50.5 16q32 20 63.5 20t62.5 -20q26 -16 51.5 -16t50.5 16q31 20 63 20q5 0 8 -3t3 -8t-3 -8t-8 -3q-25 0 -51 -17q-31 -20 -62.5 -20zM434 380q-4 0 -5 3q-2 6 3 8l147 51q5 1 7 -4t-3 -7l-147 -51h-2v0zM560 455v0q-5 0 -8 4q-15 18 -38 16q-11 0 -12 11q0 5 3 8.5t8 3.5
q34 2 56 -24q7 -9 -1 -16q-4 -3 -8 -3v0z" />
    <glyph glyph-name="xiangce1" unicode="&#xe65a;" 
d="M847 704h-670q-38 0 -65 -26.5t-27 -64.5v-458q0 -38 27 -64.5t65 -26.5h670q38 0 65 26.5t27 64.5v458q0 38 -27 64.5t-65 26.5zM177 636h670q10 0 17 -7t7 -16v-381l-149 138l-125 -100l-254 209l-190 -177v311q0 9 7 16t17 7zM722 529zM672 529q0 -21 14.5 -35.5
t35 -14.5t35 14.5t14.5 35.5t-14.5 35.5t-35 14.5t-35 -14.5t-14.5 -35.5z" />
    <glyph glyph-name="liebiao12" unicode="&#xe643;" 
d="M856 530q-28 67 -79.5 118.5t-118.5 79.5q-70 30 -146 30t-146 -30q-67 -28 -118.5 -79.5t-79.5 -118.5q-30 -70 -30 -146t30 -146q28 -67 79.5 -118.5t118.5 -79.5q70 -30 146 -30t146 30q67 28 118.5 79.5t79.5 118.5q30 70 30 146t-30 146zM514 45q-95 -1 -173.5 44
t-123.5 123.5t-44 173.5q0 142 98.5 239.5t240.5 97.5q143 0 240.5 -98t97.5 -241t-97 -241t-239 -98zM707 287h-390q-7 0 -12 -6t-5 -14.5t5 -14.5t12 -6h390q7 0 12 6t5 14.5t-5 14.5t-12 6zM707 400h-390q-7 0 -12 -6t-5 -14.5t5 -14.5t12 -6h390q7 0 12 6t5 14.5
t-5 14.5t-12 6zM707 522h-390q-7 0 -12 -6t-5 -14.5t5 -14.5t12 -6h390q7 0 12 6t5 14.5t-5 14.5t-12 6z" />
  </font>
</defs>
</svg>
